/* XPM */
static char *_d59deace45d40f5b37d74c0da7c90c9pPaODf4FPnsriAgO[] = {
/* columns rows colors chars-per-pixel */
"40 64 94 2 ",
"   c #37352D",
".  c #39352E",
"X  c #3A3731",
"o  c #3D3A33",
"O  c #423D36",
"+  c #433F38",
"@  c #454037",
"#  c #46423A",
"$  c #4A453D",
"%  c #4D483F",
"&  c #4B4640",
"*  c #4D4A42",
"=  c #524D44",
"-  c #554F48",
";  c #555147",
":  c #585347",
">  c #565249",
",  c #5A554B",
"<  c #5D594E",
"1  c #5E5B52",
"2  c #605A4F",
"3  c #625D53",
"4  c #5F6053",
"5  c #656156",
"6  c #696356",
"7  c #666359",
"8  c #6A665A",
"9  c #6E695D",
"0  c #726C5E",
"q  c #6F6C61",
"w  c #736E61",
"e  c #727166",
"r  c #767164",
"t  c #747265",
"y  c #757366",
"u  c #777467",
"i  c #797266",
"p  c #7A7465",
"a  c #7E7867",
"s  c #747068",
"d  c #777468",
"f  c #767568",
"g  c #7C7669",
"h  c #7C786A",
"j  c #7A796C",
"k  c #7E7A6D",
"l  c #7F7C6E",
"z  c #807967",
"x  c #807C6D",
"c  c #827C6C",
"v  c #817D6E",
"b  c #827E6F",
"n  c #887F6F",
"m  c #827E70",
"M  c #837F72",
"N  c #827F74",
"B  c #86806F",
"V  c #88816F",
"C  c #848072",
"Z  c #838176",
"A  c #858375",
"S  c #888273",
"D  c #8A8474",
"F  c #8D8877",
"G  c #8E8876",
"H  c #878478",
"J  c #898779",
"K  c #8C8778",
"L  c #8B887A",
"P  c #8E8979",
"I  c #8E897B",
"U  c #908776",
"Y  c #928976",
"T  c #908778",
"R  c #908A78",
"E  c #938C7B",
"W  c #938E7F",
"Q  c #948F7F",
"!  c #9A8F7C",
"~  c #97917F",
"^  c #9A927D",
"/  c #98917F",
"(  c #A0957F",
")  c #969182",
"_  c #999381",
"`  c #9A9482",
"'  c #9D9784",
"]  c #9F9886",
"[  c #9C9888",
"{  c #A19985",
"}  c #A29C89",
"|  c #A7A08E",
" . c #A6A291",
".. c #ACA591",
/* pixels */
"u y y 8 1 y s s y q 7 7 7 w q s 8 8 q 8 8 5 7 1 , 7 7 7 q q 8 w e 9 y g e y y y ",
"9 8 w 5 > 5 1 3 1 7 1 1 1 5 5 7 , , 1 7 5 1 4 > * 5 5 7 8 8 q q w 9 w 9 9 9 8 8 ",
"> * , 1 * = % * * > * % * * * > ; * * ; * * * > & = = > - & > > > > > > , 1 7 3 ",
"$ + * , * $ # $ = * # $ & $ $ * # $ > $ @ + # > > > $ * * = = * * $ $ = = - , > ",
"+ + + < 3 # o o o o + = = = $ + o o # o o o + , 3 * X X + > ; * + O + # * = $ $ ",
"0 i w k I 3 , , , , 7 8 q S y 8 8 7 1 1 3 3 5 q y , 3 5 5 q j 8 , 3 3 6 k k , 3 ",
"/ ..| ) W C ` ' _ Q A q y ] ` Q W W y x H Z Z m g 5 D L J J H y q Z N m W W w m ",
"R F F C l l ~ _ ~ F m 8 w W K m h x 8 h l y w w q 3 y f f u j 9 9 y y m m C 8 y ",
"C x g h x x R E E E D w 9 W W m i g 7 0 k w q 9 9 5 g k h h k 9 g g g I I L 3 k ",
"w w w w w y E E / / x 9 3 y y w w w 5 5 9 8 8 8 7 3 u h x x g 6 w w w k m g < w ",
"8 5 1 3 7 7 9 7 0 9 9 7 3 5 5 3 6 8 9 9 8 5 3 8 8 8 8 9 5 8 p p y w 8 1 8 8 8 9 ",
"h i 8 h S y i x 8 9 C D D C x 9 h D F F D g 9 A A C C C 7 9 ) _ ` { D 7 k g h g ",
"i i y I R h m ' x C F S D C x 9 h C C S F x w C m k k m 0 w F F )  .) q x y m i ",
"w 9 w D I C w A g x C p h x x 6 h g p x x x w C g p p x w y x x D [ ) q h g D x ",
"g 5 3 9 w y 7 8 5 0 x x C i i 6 w g x p w 0 9 C g y w p 0 0 0 g g g k 7 y g C S ",
"8 3 < < , , < 5 5 8 i i 0 5 3 1 3 3 3 3 < < 3 4 3 3 < 3 < < < 3 5 1 3 7 7 w 5 3 ",
"x x D C x 8 h F I x K g = p g g y h 5 9 g g g g p 3 w y g g h 7 7 k g D C W 9 , ",
"{ ` ' ` R w F _ W D ' W 9 ' S F R ~ C S I F D F F 7 h x x m C p w C x m C W x D ",
"' ' ' Q x y Q R A g D D p ~ x F / ' S p g C F F S 5 p g y y g y 9 k k C C x 8 I ",
"' ' ' S p w F D g p g w 0 Q S F ' _ p y p S Q Q x 5 h x p y y w 9 g g D A g 8 I ",
"g g g 5 3 , 7 5 3 6 3 3 3 h 9 9 g 9 ; 5 6 0 x y 7 3 6 8 6 3 1 3 5 3 3 8 8 3 1 8 ",
"g 8 1 w p k y w 5 3 8 7 7 8 9 3 8 w 0 w 9 5 3 9 9 y y y 5 5 w y y w 9 5 8 8 y g ",
"' D 8 F Q Q W W 0 i m f f p l 8 x W _ W R x 9 C C A ` { i w K J A K D 8 g h R ' ",
"` C 5 h x x h x 0 w x q 8 8 9 5 g g D k x x 9 g g i C Q p 9 g y w g h 5 y w x ' ",
"m y 8 h h h y g 0 0 x y 8 8 9 8 a x g g x x 8 p g g x _ g w h g h a h 9 C x g F ",
"5 5 5 9 9 9 8 9 6 6 p 9 9 5 5 1 8 0 9 9 0 0 6 9 w 9 i m 8 3 9 w i 0 0 3 0 y 7 8 ",
"8 3 5 3 5 5 5 3 3 3 7 9 w 8 < 5 7 3 5 5 3 , 9 7 1 1 7 3 , 7 5 5 3 3 < 3 = > 1 1 ",
"m 9 x x D S S g 0 g p x D x 5 x S x C x x 2 a x p p p 8 w W C m x C w x g g x x ",
"x 3 x x x x V x 0 y y x S x 5 a S S x B Y 6 y h x h p 9 9 S x x S ! g h ' ] D S ",
"B 5 p i a p p x 9 0 0 p x y 3 p V S h S F 8 x x x x x 9 8 x h h h U i x ' ' F F ",
"x 6 p a x h p p 3 9 9 0 0 0 3 0 z x x E a 3 a x y a x 8 8 p p g p i 9 x Q ' W ) ",
"9 5 5 3 5 5 5 5 3 3 3 2 3 3 3 3 3 5 3 0 9 0 5 5 5 8 3 5 3 3 3 3 3 3 6 8 9 h D x ",
"9 y 9 8 8 9 5 9 p y y g x 6 i y y y y 0 x ` S x B E 9 y k h y p w 8 x x g C ` x ",
"x h p x h p 8 y x h x F E w C D A D R S x F C D S F 0 i D D F F C 0 C C C S { E ",
"h w w x x 0 5 y i w g S R y D x f y x S y h h h x x 5 w g g k h p 8 g p g g R E ",
"9 y 8 y x y 5 g g y C / R 0 I C g g x i 7 x x p x B < 9 x D F S p 8 x p i i C x ",
"3 8 1 1 6 3 < 9 9 3 9 p w < w 8 6 w p 0 , 3 3 3 8 9 < < 5 y y y 9 5 9 3 3 5 9 8 ",
"i i w 8 9 3 9 9 8 5 8 5 3 8 5 5 8 6 3 9 0 w w h y 3 i 9 5 9 8 3 5 9 5 5 5 5 3 0 ",
"T K F C S w x S C x C g 6 h h x F S 5 8 p D / { R < C F R R F p 8 x x y f g 8 x ",
"g g x p x 6 x D S x h 0 8 p p x h h 6 6 9 w R / / 5 S x x x h 0 3 w w 9 w w 8 x ",
"x h a a F 5 F Q R R S w 0 x S m w y 9 y h 9 m ~ I 9 x h g g p 9 3 9 9 9 9 0 9 C ",
"g 0 0 0 y 2 i / S S B 6 0 x x w 8 6 < 0 g 3 8 g w 1 w w w w 0 7 < 5 5 6 6 8 3 0 ",
"< 2 2 2 0 w w x p y 3 3 9 w 6 5 2 5 8 0 9 8 6 3 8 5 5 5 5 1 1 7 5 5 5 6 3 5 3 3 ",
"i x 0 3 F { ' R E x 5 a a h i y 6 x F F C F x 8 x h l x g 9 9 S C m m x 8 y B p ",
"! / n 5 Y { } ] / z 5 y 0 y a p 6 a x x x x a 6 y y x x p 9 w S S x x x 6 0 a a ",
"a R x 3 E { } { / z 3 0 0 y x z 9 y x a a h a 6 0 0 a p 0 0 g F R B h x 6 9 0 0 ",
"0 V x 3 x S C x a 0 2 8 6 a y 0 6 y x y p y 0 3 9 9 0 8 9 5 p R S a i y 3 8 6 9 ",
"5 6 6 2 3 2 , 3 3 3 < 3 2 3 < < < 3 6 3 3 , 3 5 3 3 < 3 3 < 3 0 6 3 5 3 2 3 1 3 ",
"0 6 6 y 9 6 2 S D i w g i 3 i g a y a 6 5 0 a V g i 5 y x g p w 0 5 y g g g g w ",
"a y w p y y 0 R F a p p i 5 x C C S U y y F R R F F 9 x S S V V a 9 R F S C S S ",
"9 0 9 8 9 8 9 B n w 0 0 0 6 g i y w i 0 x / ! Y E U 5 x g h x a y 6 x a i p x S ",
"9 y 9 8 8 9 3 a x 0 9 i i 9 S x p i x 0 0 / ( ! / S < S x x F x a 6 x a g x S x ",
"5 8 , , 3 3 < < 1 < < 3 < , y p w y 9 < > 5 5 < 3 < = 3 5 5 9 0 6 , 5 5 8 w w 9 ",
"3 3 , > 3 3 8 < > , 5 5 3 3 6 6 6 6 3 : , = * , < , , = ; , , 1 3 < < < 2 6 6 5 ",
"9 9 5 < 3 3 y 3 3 8 w w 9 0 8 5 6 3 3 5 5 5 3 9 8 < 1 , , 5 5 5 5 5 6 6 8 6 3 9 ",
"7 1 ; > , = < = ; 2 5 , ; , * * * * % ; > > ; , 3 * * * * * = * = = = , < ; , 3 ",
"> = $ ; 3 ; = % = = * * * * $ % $ # $ $ * * $ * , * * % @ # % # $ # # * * * = > ",
"# + + * 5 3 $ $ $ + + O + $ $ * $ # O + X . X + ; # + +   . O o o o o + + # # # ",
"$ # $ ; 9 9 ; > = # # # # = > = ; < $ + o o O # > # o + # # + + + + + # % * = # ",
", > , 3 6 5 5 5 3 , > > > < 3 3 3 w 5 5 5 5 8 9 9 8 8 9 y w 8 8 8 8 7 7 g y > > ",
"; * $ , , = ; ; = = = * = = = = ; 3 < 2 , < < 2 < 3 3 5 9 5 2 2 < , , , 0 w # * ",
"$ $ $ ; , = = = ; $ # # $ % % % = , , ; $ % $ * $ = ; = = = % = % % % $ = 9 # # ",
"@ $ # $ ; , = = = # + # @ $ = = : , 3 , $ $ $ $ $ % * $ $ $ $ * $ $ $ $ * 3 % # ",
"@ $ # # % , , , * # + + O $ ; , , , 3 = # @ @ @ # + + + O + O + + + + $ $ = = $ "
};
