/* XPM */
static char *abdc663c97d24f0bcc6b34267d2931d5H6rIFLPU3L852OYD[] = {
/* columns rows colors chars-per-pixel */
"64 64 199 2 ",
"   c #34312A",
".  c #3A3730",
"X  c #3D3A32",
"o  c #433C34",
"O  c #464037",
"+  c #464239",
"@  c #4B453C",
"#  c #4D483F",
"$  c #50493F",
"%  c #4E4A42",
"&  c #534D43",
"*  c #565045",
"=  c #595246",
"-  c #555249",
";  c #5B554B",
":  c #5E594D",
">  c #5E5B52",
",  c #60574B",
"<  c #625A4E",
"1  c #645E52",
"2  c #695F52",
"3  c #666155",
"4  c #6B6356",
"5  c #666359",
"6  c #6C665A",
"7  c #6E695D",
"8  c #716656",
"9  c #706759",
"0  c #736C5D",
"q  c #786E5F",
"w  c #7A705F",
"e  c #6D6B62",
"r  c #6E6E69",
"t  c #736E61",
"y  c #796F60",
"u  c #767164",
"i  c #7B7464",
"p  c #7D7867",
"a  c #73726A",
"s  c #7B7669",
"d  c #7E796B",
"f  c #777874",
"g  c #7D7C74",
"h  c #807666",
"j  c #817867",
"k  c #807768",
"l  c #837C6C",
"z  c #887E6D",
"x  c #847E71",
"c  c #897F70",
"v  c #7D807C",
"b  c #87806F",
"n  c #8A816F",
"m  c #868173",
"M  c #8B8473",
"N  c #8F8876",
"B  c #84837B",
"V  c #8A867A",
"C  c #8E897B",
"Z  c #918775",
"A  c #928976",
"S  c #948C7A",
"D  c #998E7B",
"F  c #97907E",
"G  c #9B917E",
"H  c #A1957F",
"J  c #818380",
"K  c #868986",
"L  c #8B8A82",
"P  c #8E8F89",
"I  c #928E81",
"U  c #8E918E",
"Y  c #969183",
"T  c #9D9582",
"R  c #9F9986",
"E  c #94938B",
"W  c #9A978B",
"Q  c #9C998D",
"!  c #939693",
"~  c #969997",
"^  c #9B9C94",
"/  c #9C9E9A",
"(  c #A19682",
")  c #A49A85",
"_  c #A99D86",
"`  c #A59D8A",
"'  c #A99E89",
"]  c #A19E92",
"[  c #9EA19D",
"{  c #A7A08C",
"}  c #ACA28C",
"|  c #B1A58E",
" . c #B3A88F",
".. c #A6A294",
"X. c #ADA592",
"o. c #AEA894",
"O. c #A4A49C",
"+. c #A9A69B",
"@. c #ACA99D",
"#. c #B1A791",
"$. c #B4AB94",
"%. c #B9AE95",
"&. c #B5AE9A",
"*. c #B9AE98",
"=. c #BCB197",
"-. c #B6B09D",
";. c #BDB39B",
":. c #A3A6A2",
">. c #A5A9A5",
",. c #ACACA4",
"<. c #A6ABA8",
"1. c #ACAEA9",
"2. c #B2AFA2",
"3. c #AEB2AD",
"4. c #B6B2A2",
"5. c #BBB5A2",
"6. c #BEB8A5",
"7. c #B3B3AC",
"8. c #BAB7A8",
"9. c #AFB4B1",
"0. c #B4B6B1",
"q. c #B6B8B2",
"w. c #BCBDB5",
"e. c #BDBFB8",
"r. c #C2B69D",
"t. c #C4B99E",
"y. c #C8BC9F",
"u. c #C1B7A0",
"i. c #C4BBA3",
"p. c #CABEA4",
"a. c #C3BDAC",
"s. c #CABFA8",
"d. c #C0BFB5",
"f. c #BFC3BD",
"g. c #CCC1A6",
"h. c #C7C1AE",
"j. c #CDC3AA",
"k. c #D0C2A6",
"l. c #D1C6AB",
"z. c #D4C9AE",
"x. c #D9CCAE",
"c. c #C5C2B3",
"v. c #CDC6B4",
"b. c #CEC9B4",
"n. c #C4C5BC",
"m. c #C9C6B9",
"M. c #CDCABB",
"N. c #D1C7B2",
"B. c #D4CBB2",
"V. c #DACEB2",
"C. c #D5CEBA",
"Z. c #D8CEB8",
"A. c #DDD1B5",
"S. c #DDD4BA",
"D. c #E2D4B5",
"F. c #E2D6B9",
"G. c #E4DABD",
"H. c #E9DCBD",
"J. c #EEE1BF",
"K. c #CCCCC3",
"L. c #D1CEC1",
"P. c #D5D2C3",
"I. c #DBD6C4",
"U. c #DCD8C6",
"Y. c #D0D2CB",
"T. c #D9D7CA",
"R. c #DDDBCE",
"E. c #D6D7D2",
"W. c #DEDED4",
"Q. c #E4DBC3",
"!. c #EADFC1",
"~. c #E4DECA",
"^. c #E9DFC8",
"/. c #E1DED1",
"(. c #ECE2C4",
"). c #E6E0CB",
"_. c #ECE4CA",
"`. c #EFE8C9",
"'. c #F1E5C5",
"]. c #F1E6C9",
"[. c #F3EACD",
"{. c #E4E2D4",
"}. c #E9E5D3",
"|. c #EEEAD5",
" X c #E4E4DB",
".X c #E8E7DA",
"XX c #EDEBDC",
"oX c #F2ECD3",
"OX c #F2EEDB",
"+X c #F5F1DC",
"@X c #F8F3D9",
"#X c #EDEDE5",
"$X c #F1EFE5",
"%X c #F4F2E3",
"&X c #F9F7E7",
"*X c #F4F3EA",
"=X c #F7F7F1",
"-X c #FBFBF4",
";X c #FFFFFC",
/* pixels */
"*X/.m.6.@.X.Y F Q ` X.$.X.X.5.i.;.=.;.$.X.&.X.X.4.4.&.4.&.$.X.S x T ' R ) R T S C C M m N m s u s s t 7 7 7 7 6 5 5 5 a J :.3.! ",
"#XR.c.5.X.` N M S T ) T S S ` $.{ ' { ` R T R ` ..R Y T F S S d e S ' S N N M m x l x d d l i u u u 7 7 5 5 6 5 5 1 > e g ~ >.K ",
"Y.w.^ Y S z s l u s l l l l m N m l l l d p d m M l i s i w i e 6 m m 6 3 7 u i i t 7 3 1 1 < : : ; ; - # % - - & & - > r U ~ f ",
"n.7.] S x l m l 6 4 0 i 0 0 t s i t i s u u 0 u d l i 0 0 6 7 7 t d t ; - : 1 4 6 3 : : = & & & & & & & & % % % % % - - e K ! f ",
"w.7.+.m 7 t S M 6 1 1 6 4 4 4 0 s n A N m n 0 4 4 4 2 1 1 < 6 m Y l 2 ; ; ; : ; = < < = & # @ @ @ # * ; ; # o . X # ; & 5 J ! v ",
"Y.W.P.4...T X.o.R R Y R { X.X.%.;.l.S.i.X.$.o.T S A A A A l D i.N.$.) ' ) D m t 0 C Y m t 7 7 6 < < u d a 3 3 3 3 3 e r g [ 0.~ ",
" X#XXX).Q.5.&.h.v.B.j.B.Q.).(._.oXoX@Xb.X.a.C.G.(.'.'.'.'.z.i.l.B.B.S.Q.G.j.$.F S X.X.` S C C V u 7 m V B m m V M d g L W w.K.O.",
" X XU.B.h.o.X.&.&.p.i.p.j.j.z.F.(.(.@Xh.) i.S.A.!.'.'.'.'.V.r.;.;.i.p.i.i.;.X.N m ) R T S M l l i 6 d d u u u s s t a g E 7.n./ ",
"#X.X~.S.j.$.{ o.$.i.%.;.p.p.j.G._.].].u.{ j.F.!.(.(.H.H.H.l.r.;.=.%.#.} } %.$.S l ' { ` ` S l M m 6 s l d d d d s a t g L 1.f./ ",
" X/.~.S.j.#.) ' { } ' #.=.=.=.u.i.p.i.{ ' u.l.G.(.'.(.F.H.k.X.' ' ' ) T G T T l i S T Y S m i l l 6 t d d d d s s t 7 a B >.9.E ",
"#X{.M.4.&.X.{ ' T { #.$.$.#.` ` } X.X.' ' $.*.*.$.=.$.{ X.' Y T T C l l M N M m x l l d e t l l l l l s 7 > 6 0 7 7 7 a V [ <.P ",
";X-X~.i.B.B.N.h.#.j.A.D.A.B.$.=.z.V.V.F.F.F.A.j.} ' u.h.u.X.#.i.p.%.G A _ { T Y T F S C s m X.X.' ) T S i ; 7 m x x m B ] 7.q.@.",
";X&X).h.B.j.l.j.%.z.D.V.A.x.#.=.V.D.D.F.H.A.F.(.h.i.(.[.N.$.;.l.z.j.#.G ` ` D T ) G S G m Y -.&.' F S N s 1 u l d d m V ] 7.w.,.",
"-X+XQ.l.j.i.p.j.%.g.l.p.z.x.} $.l.z.z.z.l.k.z.G.p.r.S.B.$.%.h.l.g.i.} A D ( T ' { T C S m Y -.{ F A l l s 4 u l i s x V W 1.0.O.",
"=X{.C.i.i.;.u.p.} $.t.p.p.t._ | i.i.g.V.D.x.z.l.#.` #.} T ` #.} ( G A l N ( ' { ' T S m s x S l l m u 0 0 4 0 i t u d d Y >.7.O.",
" XM.8.#.{ R R ( T Y T ` ` ` ( ) { } } %.t.g.p.=.} ' _ ( G M b m m z l l l M l s l N x s i t 6 7 7 6 1 1 1 : 1 4 1 1 6 e g ~ >.W ",
"E.R.U.B.i.X.&.t.i.i.$.*.r.;.g.g.h.j.5.S ` Z.Q.N.l.S.S.A.g.' G %.i.;.r.*.X.} N 6 N $.' T R S x m 0 > i d i i u u t 7 s m L <.0.W ",
"#XXX}.S.B.=.j.A.A.F.B.G.!.H.!.F.A.(.OX-.i.|.OXQ.A.G.(.(.H.r.{ i.V.V.A.x.l.V.g.Y R -.{ R Y D S S s t m m l l d d l u M Y ] d.n.,.",
"XX.XI.v.j.&.p.A.D.j.p.Q.[.[.].S.z.G.@Xj.i.~.Q.h.p.B.S.F.H.l.} $.p.z.V.V.z.V.z.) M ) R R Y S N m i t l s u a u s d u m S ^ m.n.,.",
" X{.C.N.B.=.u.F.H.g.=.N._.oX(.A.A.G.oXi.' i.h.;.i.i.p.B.D.r.' { %.t.z.A.z.z.h.) m S G ` T N m l u 7 l u t t i l l u m S E c.n.^ ",
" XK.8.4.&.' ' =.t.| ( ` =.g.u.#.%.g.z.{ Y ` ' ) { ` T ' { S M S A S { X.' { T l u s s l s 0 7 0 7 4 6 1 > 3 6 6 6 6 t d B :.3.U ",
"$XW.m.4.6.5.$.} ( } %.=.;.&.( ' %.%.o.X.X.X.X.#.T ( #.&.$.&.;.&.{ ) N l G ' ` T A l l s t s d d d d i t 7 ; 7 i u s t a L :.<.U ",
"-X*XR.b.`.G.B.s.$.V.!.(.(.S.} %.j.g.i.i.i.i.h.V.$.| z.G.S.A.A.B.l.i.Y S ;.j.p.t.} G S m i S T F S C C C l 1 x T Y S m C ..7.9.~ ",
"*X.XP.b.Q.j.i.;.$.l.l.l.l.l.#.{ #.#.#.X.$.-.h.B.#.| j.j.u.5.i.-.&.$.D S -.h.p.r.) m S m u M S m s i d d i 1 m F m l d M W <.<.E ",
"-XXXT.M.Q.j.p.=. .g.p.p.l.j.X.X.$.} #.X.$.i.N.j.{ } i.r.%.%.=.&.$.#.G M ` $.%.} G D ( D s n M n m l d l d 1 m Y m d d m E <.1.W ",
"#XR.c.8.N.;.%.| _  .#.#.=.%.R ` { ` #.%.#.=.i.;.( ( #.{ ) ) ) ) ) T N l m M M l l M M j 0 s s s d i t 7 6 ; t x s t u s V O.>.E ",
"{.P.a.+.X.` R { ` G ) _ ' { X.) G ` $.;.=.#.} ' ) T D G T G G G D N N M l m l s u 6 3 6 0 6 7 0 6 6 6 4 5 1 ; 3 7 3 6 t x / >.W ",
"-X&XoXc.;.i.r.p.$.=.l.l.l.V.H.=.` r.V.D.A.j.i.i.i.$.' r.j.p.p.p.t.%.&.{ S ` #._ T S D G D j M D m m m m N x 1 6 i i d l W 7.q.O.",
"-X%XoXh.r.p.g.p.#.g.x.x.D.D.D.%.` t.x.D.V.g.r.;.r.$.#.p.g.p.r.=.=.=.=.( l _ =.} | ;.r.$.D l ` ` D m m b m l 4 6 s d l m ` 7.q.O.",
"-XOXQ.i.i.l.k.l.t.p.x.z.D.A.V.%.` %.p.l.g.t.%.$.%.{ } t.r.$.$.$.#.} } G n ' =.#.#.;.r.$.G l G G M l l l d i 3 6 l l b m Q 7.7.] ",
"*X|.S.i.;.p.r.p.$.$.V.l.g.p.g.| ( | %.%.$.$.| } } ( ` %.=.$.%.=.%.} } G M { r.=.%.=.=.{ D l l l l l l i u u 3 4 d d l l W ,.1.E ",
"{.L.8.&.X.{ { ' } | $._ ' ( T ( ` ` ( ) ( T T T T T ( T G G G G S A N M n S ( } | ( N l l u t 6 6 4 4 1 1 1 1 4 3 3 7 s B ~ :.L ",
"*X{.U.C.;.j.V.g.A.V.;.;.;.;.;.i.p.#.} g.j.i.;.=.=.;.;.' D ( _ R Y F S G T D D $.r.{ D D G D l 6 s l s i s i s i 4 l M S Y >.7.^ ",
"-X*X|.Q.i.g.V.x.V.z.B.F.A.A.A.S.F.;.g.!.H.A.j.p.p.p.p.X.T ' #.%.%.$.} ' } } } t.i.{ ) T T G m t N S A M m x x s 6 m N S ..7.w.@.",
"-X$X~.C.;.;.g.p.p.t.z.z.p.p.h.S.(.i.z.(.H.A.j.r.*.;.i.#.G T { %.;.%.' G T ` } r.%.G D S N M l 0 l M l l s i s i 3 i l M Q 1.w.,.",
"-X&XoXS.$.*.l.i.g.#.r.j.p.p.j.G._.u.i.G.'.(.V.i.*.;.j.%.G T } %.%.' S D T S D | ' S N N M A b 7 l N N A m l s 0 : t l m Y 1.e.2.",
"#X{.S.4.R ' } ` ) S #.r.%.{ { $.r.' G %.p.i.$.` T ' %.' A M A D S m l m N l l m m l u t t s u 6 u i u u u 6 1 1 : 6 7 t C O.1.! ",
"W.P.m.4.-.#.#.t.*.$.} _ } | { ) ' } } ( T } } _ ) ` } } ' D A G T G T ' ) ) G n s l i u t 0 i s 7 3 7 0 0 5 5 6 i t i d B / >.P ",
" XOXoX_.G.=.g.'.H.p.} %.V.F.V.j.g.g.l.| { z.B.g.j.j.j.l.j.#.' =.r.=.;.i.;.=.%.D n D C M m M S m 0 0 m N N N N m m s S S C 7.q.~ ",
"W.}.).S.V.i.V.'.V.%.' %.p.g.z.z.g.r.l.%.` i.g.g.z.V.z.V.z.} D %.r.| #.#.' ' } G z M m l l l l s 6 6 l l l l l d m x S M V ,.q.! ",
"W.{.Q.B.z.r.z.H.i.r.=.%.=.*.p.S.D.j.A.t.{ t.x.F.F.D.D.H.D.| S r.k.| ' { { { #.( m m l l j s i u 4 4 d d i i s d l l N m L ,.w.^ ",
"R.T.B.a.5.} X.;.` $.$.' } | | i.l.z.V.=.)  .j.A.z.z.D.H.g.D A } $.` G G G ( ( n s l s s u 0 0 7 3 3 0 0 7 0 0 t t 7 u s B O.q.W ",
" XL.4.&.o.{ ' ` } #.$.} ( G _ _ { %.;.%.' ( ( } r.t.i.p.%.| | } G M l l l h l s h l 0 0 i u t 0 0 7 6 1 > 3 3 5 5 5 7 s V / <.E ",
"-X|.a.N.z.j.p.$.l.B.A.D.$.( =.;.r.g.g.p.p.t.( _ x.H.A.A.F.(.H.V.$.A D } } ( G G ( D s l G D S S A A m 7 1 i i d d d d C ` ,.7.] ",
"-XOXv.l.V.p.r.$.p.k.k.z.| G =.p.p.t.r.=.r.r._ _ l.H.H.'.].'.(.H.=.A ' g.k.r._ G G Z h l G D A D D S M t 3 u u l b i i V W +.7.Q ",
"-X%Xb.h.l.r.%.| i.p.y.g.| _ t.p.g.p.=.%.%.%.( ` l.H.H.'.].(.(.H.=.Z ( y.r.' G A Z n i l D A A D T G S s 3 y 0 u l t u m Y +.7.W ",
"*XXXa.;.%.$.} _ $.=.r.p.| H |  .=.y.=.} _ | ( G %.t.t.p.h.p.p.p.' M ) r. .G Z z l l w i n n n M S S S u : 6 6 4 0 7 0 d Y O.,.Y ",
".XI.5.$.' ( ( ( G G ( _ H D G G G ( G G ( ` G D ( ( ( G m l S D A n M D Z z j i y q q 0 0 0 0 6 0 0 0 4 ; 1 1 1 : 1 6 e x ~ O.L ",
"%X{.Q.V.;.%.t.l.r.{ } r.r.i.p.p.i.} G *.p.r.*.%.r.l.A.i.D A T T ` ` D M A A A D G D D S A M s 6 s h i s i s s i 4 u l d C ,.3.W ",
"=X%XoXQ.j.p.V.F.D.p.t.x.V.x.V.V.A.=.T %.i.i.r.=.i.x.F.z.#.' } { { ' T G ( ( ` | } ( ` ( ( ` Z 6 z A M n m l l n 0 l S S Q 7.q.W ",
"&XOX^.S.j.p.H.H.J.x.r.r.r.r.t.i.l.=.( #.%.%.$.#.%.g.x.i.' ( ( T Y F D D D A T $._ D A A A D l 6 l n l l l s h M 0 u D T Y ,.7.E ",
"*X%X_.S.h.-.G.G.(.i.$.t.t.r.g.z.F.p.T %.p.%.} } #.r.g.$.D D T F D S N D T S D } } ( D A A A l 6 l M M M l i l N 6 6 D F I ,.q.W ",
".XR.c.&.R D ) G ) D D | %.%.t.i.p.{ N D ) T D S S D S A M M S N l l i l N m l M A Z l i t 0 6 < 0 u 0 6 4 1 3 1 - ; 5 e x +.1.L ",
"W.m.2.W C S S N l m M H _ } ' ' } T ( T T ) ) S N m l S T Y S N l i i l l l l s l l u 0 0 6 4 4 4 4 1 : : - & & - 1 > 3 d ^ :.L ",
"W.L.a.] Y F T ` T ( H G G _ ( ( _ }  .X.o.$.&.X.) D N G X.X.N N N l n N N S A l i h s i u 0 0 9 6 4 4 3 3 : - - : 1 6 t g ~ :.E ",
"n.7.^ C m l S N n n z s s d d s s c A M N S T T A l s l N m u l m u 0 u l m l u 0 4 4 6 1 < ; = = & * & % # % % & - > 1 r K ! B ",
"w.@.Y x l d m l u u u 0 0 0 u i i i i s u l p i j s q 0 u i s m M y 1 1 7 0 0 6 < ; : ; * & # # & # @ # O o O # % % - ; 6 J U f ",
",.Q m t t 0 l 7 ; ; 1 4 0 0 i s i i 0 6 4 4 4 2 8 0 0 0 0 u A G l 6 < = ; ; = = = & & # @ @ o o o o o o .   . o + O % # > B U r ",
"7...Y m u 0 n t 1 < 4 l N l l l z z u 0 0 0 0 9 0 w l l h l T ` M u 4 < : < ; = < 1 : ; & # # # @ @ O O O + O O o O & & 5 P ! a ",
"{.P.v.h.&.{ } ' ( T T { ' G G G G D N M m m m m m N S D S S S D D n u 0 0 0 0 4 6 l D n 0 0 0 0 0 7 6 6 7 t 0 6 3 6 7 t g ~ / B ",
"T.v.6.;.{ ( G D A A D G D l l l l j j j h i s p s l l l l s u h l s 6 1 4 6 4 ; ; s A 0 1 1 4 1 1 1 1 < 1 4 4 3 1 1 1 6 d P ! f ",
"n.4.` T A M j i i w z M Z l h s s j y 0 q 0 0 6 0 s s u u q u h l q 2 < < < ; * ; u u = & = = & & & & $ & & & & * * & > a L E a ",
"w.@.T N l k u q 0 q n S M n z l j i 0 6 8 0 6 1 6 i s u u s h h 0 4 < < < ; = = < 0 4 & & & & & # $ # @ @ @ @ # # % & ; a P U a ",
",.Q N s 0 6 6 6 4 6 i D n n M z l s 0 < < 4 2 1 4 t l l l l h 0 1 , < < : = ; : 3 3 ; = & # @ @ O o o o o o o o o O # - t E U r "
};
