/* XPM */
static char *ce51a1c75ebb449cd7d6929554db5429N51a5czwtFglJDcC[] = {
/* columns rows colors chars-per-pixel */
"64 64 238 2 ",
"   c #280E00",
".  c #2B1301",
"X  c #331401",
"o  c #341903",
"O  c #3A1904",
"+  c #3B1D0A",
"@  c #371905",
"#  c #3E240E",
"$  c #3B2412",
"%  c #3F2B13",
"&  c #421D05",
"*  c #431E0B",
"=  c #44230C",
"-  c #4C2A0C",
";  c #48260C",
":  c #53290D",
">  c #53280E",
",  c #432612",
"<  c #4C2613",
"1  c #452A14",
"2  c #4C2C14",
"3  c #4C2C1A",
"4  c #442B19",
"5  c #542C13",
"6  c #5B2D14",
"7  c #542E1A",
"8  c #5C2E18",
"9  c #4D321B",
"0  c #4A3318",
"q  c #553214",
"w  c #5D3216",
"e  c #5E3914",
"r  c #53321C",
"t  c #5C341B",
"y  c #5E391A",
"u  c #622F15",
"i  c #612E18",
"p  c #633315",
"a  c #643914",
"s  c #63351B",
"d  c #6A361B",
"f  c #653B1C",
"g  c #6B3B1D",
"h  c #6A3315",
"j  c #733C1C",
"k  c #793E1D",
"l  c #532E20",
"z  c #4F3524",
"x  c #553522",
"c  c #5B3623",
"v  c #563A25",
"b  c #5C3A24",
"n  c #5C3D29",
"m  c #583728",
"M  c #4A2E20",
"N  c #643721",
"B  c #643B23",
"V  c #6B3C23",
"C  c #643E2A",
"Z  c #6C3F2A",
"A  c #6F3622",
"S  c #733D23",
"D  c #7A3E23",
"F  c #723F29",
"G  c #5E4119",
"H  c #69411D",
"J  c #7B401F",
"K  c #734A1E",
"L  c #5D422B",
"P  c #5F4630",
"I  c #6C4224",
"U  c #6D4925",
"Y  c #65442B",
"T  c #6C432B",
"R  c #6D4A2B",
"E  c #654729",
"W  c #744325",
"Q  c #7C4324",
"!  c #724B25",
"~  c #7B4B27",
"^  c #73442B",
"/  c #7B452B",
"(  c #754A2C",
")  c #7C4A2D",
"_  c #74522D",
"`  c #7C522D",
"'  c #644B33",
"]  c #6C4B32",
"[  c #6C4935",
"{  c #744632",
"}  c #7B4631",
"|  c #744B32",
" . c #7C4C32",
".. c #7E4E39",
"X. c #744C39",
"o. c #6C5139",
"O. c #755233",
"+. c #7D5234",
"@. c #7D5935",
"#. c #755439",
"$. c #7B543A",
"%. c #7C5A3B",
"&. c #745B3D",
"*. c #6F512D",
"=. c #7E5E42",
"-. c #765842",
";. c #7C6146",
":. c #824525",
">. c #834B26",
",. c #82462A",
"<. c #824B2C",
"1. c #894D2D",
"2. c #884C27",
"3. c #83522E",
"4. c #89512E",
"5. c #8D582C",
"6. c #91522F",
"7. c #844D32",
"8. c #8A4E32",
"9. c #854E39",
"0. c #8A4E3A",
"q. c #924F34",
"w. c #845234",
"e. c #8B5334",
"r. c #835A34",
"t. c #8B5C35",
"y. c #845339",
"u. c #8B543A",
"i. c #845B3B",
"p. c #8B5B3C",
"a. c #935534",
"s. c #925936",
"d. c #9A5B35",
"f. c #92553A",
"g. c #935A3C",
"h. c #9B5C3B",
"j. c #995739",
"k. c #A15E3C",
"l. c #A25B36",
"z. c #8C6237",
"x. c #85613D",
"c. c #8B623D",
"v. c #8E693E",
"b. c #92643D",
"n. c #9C633E",
"m. c #946A3E",
"M. c #9B6A3C",
"N. c #946636",
"B. c #9A703E",
"V. c #A2623D",
"C. c #A26B3D",
"Z. c #835C42",
"A. c #8C5D42",
"S. c #895A43",
"D. c #945D41",
"F. c #9C5E41",
"G. c #935442",
"H. c #A25E44",
"J. c #846243",
"K. c #8C6443",
"L. c #8E6945",
"P. c #8C6549",
"I. c #8D6A4B",
"U. c #866849",
"Y. c #936443",
"T. c #9B6343",
"R. c #946B44",
"E. c #9A6D44",
"W. c #936449",
"Q. c #9C6549",
"!. c #946C4A",
"~. c #9A6E4A",
"^. c #967146",
"/. c #9D7145",
"(. c #95714C",
"). c #9C734C",
"_. c #9E794F",
"`. c #9B6D50",
"'. c #957352",
"]. c #9C7452",
"[. c #9E7954",
"{. c #9B7758",
"}. c #A36443",
"|. c #A96745",
" X c #AB6A46",
".X c #A26549",
"XX c #A36B4C",
"oX c #AA6A4A",
"OX c #A26C43",
"+X c #A37245",
"@X c #A97346",
"#X c #A2744C",
"$X c #AA764C",
"%X c #A47A4D",
"&X c #AA7A4C",
"*X c #AA7945",
"=X c #A27553",
"-X c #A47B53",
";X c #AB7D53",
":X c #A57C59",
">X c #AA7D5A",
",X c #B37D52",
"<X c #B07E5B",
"1X c #A87F61",
"2X c #A9814F",
"3X c #A78156",
"4X c #AC8255",
"5X c #AC825B",
"6X c #A4815C",
"7X c #B28354",
"8X c #B3855C",
"9X c #BD8759",
"0X c #B4895B",
"qX c #BA8B5C",
"wX c #B88253",
"eX c #BF945F",
"rX c #9D8265",
"tX c #AD8661",
"yX c #AE8C69",
"uX c #AE8A65",
"iX c #B38661",
"pX c #B48A62",
"aX c #BB8D63",
"sX c #B38B69",
"dX c #BA8C68",
"fX c #BE9263",
"gX c #BD9269",
"hX c #B29172",
"jX c #C18B5C",
"kX c #C28E66",
"lX c #C39462",
"zX c #C3946B",
"xX c #C89A6B",
"cX c #CC9C72",
"vX c #C89B77",
"bX c #D39C75",
"nX c #C6A27B",
"mX c #D1A781",
/* pixels */
"4XxXaX;XU i.R./.%X2X4X4X7X7X8X0XaXgXzXzXzXcXxXlX0X4X5X>X).z.;X7XxX9XL.U -X;X,X9XkXqX9XqXqXaXqX7X8X0X0X7X7X4X4X3X3X-XL.r.R.8XqXlX",
"4XxXqX;XU x.~.-X3X4X0X0X0X0X0XiXpXpXpXpX0XqXqX0X0X4X5X>X~.b.;X7XxXqXJ.R (.-X;X7X7X8X8X7X4X4X4X4X-X-X;X&X&X&X;X;X_.).x.r.R.0XaXfX",
"b.0X+X~.R {.iX>XtXtXpXaXaXaXdXpXpX5X5XpXaXaXfXlXfXpX8X5XR.r.m.M.4X^.' o.I.!._.5X:X:X3X3X6X6X:X=X-X-X=X#X#X#X#X=X).].!.r.t.~.#X;X",
"~.pX#X~.I ]  .) @.@.w.w.3.3.) ( ! U ( r.t.z.z.N.m.z.r.i.r.w.R./.0X:X' ' R U ! ! ` _ ! ! ( R R U ( ( ) ` ` ` ` w. .( I f @.).;X7X",
"Y.8X#Xc.] J.A.( _ ` +.w.r.t.p.i.K.c.c.x.Y.~.).%X).^.K.L.p.r.b.E.4X).E U.K.Y.E.b.Y.b.t.r.w.r.p.Y.x.x.x.c.r.r.@.r.i.%.| R +.).-X-X",
"~.8X;XY.O.%.A.K.R.R.R.L.c.c.K.K.L.L.x.i.i.c.b.m.=X:X:X1X=Xp.b./.lX+XU hXvXgXzXxXzXaX0X;X#X~.~.~.(.(.!.!.R.R.(.(.'.'.'.J.x.~.;X8X",
"E.qX7Xr.O.'.[.]._._.(.~.R.R.!.!.R.R.~.(.`.~.R.Y.L.!.`.].!.+.c.#XlX*XH (.!.#X#X&X4X&X&X&X&X#X/./.=X=X#X+X).).).).].].!.x.c.+X7XqX",
"N.0X7Xr.R {.].=X[.].).).~.^.!.!.!.R.K.K.W.!.~.].).].{.{.].O.r.E.eX/.G U.x.~.#X4X5X3X;X;X-X%X-X-X=X-X;X;X;X3X5X5X:X=X].x.r.b.&X7X",
"m.4X$Xb.R U.!.=X(.(.~.R.b.b.K.K.L.x.J.I.I.I.L.(.K.K.I.J.R %.x.v.0X^.E &.=.].].[.~.(.).^.!.!.R.R.(.(._.=X%X=X-X[.:X[.'.x.@.R./.4X",
"E.;X+Xc.- q t s f f g a a a f y y y y s s w w f y q q 5 - R L.).-X).' $ 2 w d f V B f f B B f d f f d a a e y y y q q - +.).%X%X",
"#X=X#X~.- 1 T T ( (  . .) ~ ( T W W / / / / ( ) ^ ^ V s 8 +.~.R.#X=X-.@ c B ^ ^ ^ ^ / ( (  . . . .7.u.u.u.w. .^ V B t 5 p.:X).#X",
"=X=X=X].= = C T  . .} ^ W W ( | ) w.u.u.u.y.7.) (  .^ s 5 i.).).;X=X-.+ Z { ^ } y.u.u.u.y.7.9.9.7./ D S S W  ...{ { B 8 K.:X~.;X",
"=X-X:X].= + 2 8 8 i d A S W ^ ^ V H V s s s f s s y t 5 & %.(.).;X(.[ X 5 8 i d V S W W S d h h d d d d d d V B B t 7 & W.].).;X",
").=X=X!.2 9 C  .y.y.9.7.,.)  .( r.w.( ^ ^  .+.+.| | R Y q I.].^.5X=X#.+ Y ^ y.u.D.D.g.g.Y.D.g.u.u.y.u.u.u.w.w.| { C t 5 P.=X).-X",
"#X-XE.L.2 9 | i.p.p.D.D.g.s.u.w.w.e.u.u.9.9.7. . .| Z B 8 +._.b.#X(.] @ ] $.A.g.Y.D.s.s.s.s.e.e.u.e.e.u.e.e.w.+.^ ^ f 8 r.=XE.#X",
"E.-XR.(.0 1 ] ( )  .7.<.,.,.) / Q ) 7.7.9.9.9.y. .$.{ T s ( -Xb.;X:XY X B Z ^ /  . .) / ~ / <.w.u.w.7.) ) 7.y.y.$.| Z > i.#X#XE.",
").-XR.{.0 z X.i.y.i.y.7.7.u.D.Y.T.XX=X`.W.A.A.A.i.Z.-.X.c ] :Xb.;X[.' + C | $.y.y.y.w.w. . . .7. . . .^ ( | | X.] C b 3 %.=X).).",
"~.-X_.{.$ $ < 5 : > 6 6 6 i s s h h p p u u u 6 p 8 < , * Y :XR.8X:XY . < > 8 w 8 6 6 6 6 6 6 6 8 8 6 6 6 8 8 7 < = + O %.:X_.-X",
"E.;X;X[.1 M T ( ( )  . .} } ( <.8.1.,.,.<.0.0.8.<./ T Z t y.;XN.qX5XY O B ^ ( ( 7. .,.) )  .<.) ) ) <.8.e.y.y.| ( | C 5 c.#XE.&X",
"n.$X;X].1 x { 7.w.e.e.u.u.u.u.f.f.f.a.e.e.u.f.u.e.w...| s y.+XM.8X5XY = | p.D.D.Q.Y.g.g.g.D.g.s.g.g.s.s.e.8. .^ W I t > z.+X+X&X",
"C.@X;X=X1 l ^ 7.e.e.f.f.G.f.f.f.f.u.u.u.e.w.9.<.) W Z B 5 +.m.E.&X5XY @ Y ( 8.e.u.e.e.e.e.8.<.,.1.e.e.e.e.e.u.y. .W B 6 t.M.+X@X",
"@X@X&X).1 x ..u.e.u.u.u.0.0.8.8.w.7.( (  .7.7.) W g B b r Z.c./.&XiXY X B I /  .y.y.u.g.p.u.8.<.e.e.u.e.e.7.7. .( T Y w t.M.+X+X",
"#X/.&X(.# 4 B I V I S V V S W I N s t t s B V V t q 3 2 , =.L._.#XsXL   r B V V ^ ^ ) 7. . ./ ^ ^ / / / D V s p B t 7 < L.).#XE.",
"&X/.%X'.% 4 b V I W W W ^ ^ W g T T T I B B Z ^ B B b 3 , U.L.[.R.yXP . 3 t p V B V V V V V V V V ^ (  . ./ Z Z B B 7 * K.).).~.",
"#X+X3X!.4 4 Z ^ / <.w.u.y.y.u.w.S.S.y.$.y... ./ ^ ^ b r < Z.K.:X).yX' . x b B Z Z I I V B V V V Z V V V S ^ Z Z B b l = K.(.:X].",
"+X#X;XL.1 3 Z ^ <.<.7.8.9.y.7./ / ^ W W / / / / W ^ Y B < S.R.=X/.tX' . x B Z V T ^ W W W ^ / / (  .) <.7. . .| T B 7 < K.!.=X~.",
"E.+X-XK.4 z { w.u.u.s.g.D.u.e.8.s.u.g.T.T.Q.XXoXQ.Q.P.$.t !.R.~./.5X#.+ T | w.w.w.u.g.T.Q.Q.T.D.T.D.D.T..XQ.W.S.r.( B t ~.).#X#X",
"E.#X;XK.1 3 N j Q Q D D D Q / 1.,.Q >.<.:.:.1.1.,.) ^ B 5 K.Y.E.#X:X$.@ B W ~ Q ~ ) >.>.,.,.:.:.8.,.Q :.,.1.<.^ W g t 5 c.R.E.+X",
"OX+X;XY.r C y.F.T.}.}.}.}.h.a.1.1.>.2.4.>.,.1.1.,.~ I t 5 @.z./.+X#X#.O B / ) ,.,.1.a.s.s.e.1.1.1.,.Q J k Q ,.<.~ ~ T 8 z./.#X&X",
"&X$X&Xc.2 c 9.g.h.h.k.k.H.}.|. XoX}.n.n.s.a.a.4.4.r.( I t O.b.&X#X-X#.& T y.f.g.Q.T.n.h.s.e.e.e.s.s.a.a.a.a.u.u.r.w.( 6 t./.+X#X",
"&X#X&X!.r x ^ Q :.2.6.6.a.a.d.d.j.j.a.e.e.a.f.a.e.w. .T t ( ].;X;X5X#.O B ^ / <.7.<.1.e.f.f.a.e.u.u.e.s.g.g.u.w.) ( B 5 c.&X&X-X",
"7X%X-X!.9 v  .w.e.s.s.s.h.T.n.h.g.h.f.1.8.8.e.e.e. . .{ t | tX4X;XtXo.+ C  . .7.y.7.<.<.8.w.8.8.w.w.w.w.8.w.w.w. .( C r !.5X;X-X",
"0X%X5XU.9 3 R ^ ^ W ) 7.y.p.u.w.y.w.) W S W ( 7.) w.| Y t | aX0X;XyXo.o b Y T ( | ( W W ^ ( ^ ^ (  . ./ ^ ^ ^ T Y C b < ].aX>X>X",
"qX&X8XI., $ 7 6 8 s V d d d g g g g d g V W S V j V N t 5 O.zXqX&XsXo.. r t 8 8 s s s h s s p p s s h h s s s p 8 r 3 & ~.aX;X5X",
"jX*X8X!.1 v  .w.) e.g.D.s.e.e.u.f.f.e.8.8.9.u.s.g.f.y. .V p.bX9X$XzX#.O | 7.<./ 8.u.f.f.s.g.F.F.s.a.f.a.a.e.f.u.p.y.T q &XlX&X&X",
"jXC.,XR.1 x | w.g.u.u.e.e.e.8.e.e.f.f.a.8.8.0.e.8.1.9.{ s i.cX,XC.xXZ.& ^ / ,.8.e.g.j.a.f.T..X|.}.}.H.h.g.s.g.Q.r.+.B : /.lX&XE.",
"lXN.#Xx., 3 T  . ./ W Q ,.<.8.w.7.7.8.<./ ^ ^ D S S Z B 5 i.bX7X5.iX$.O Z ^ / 8.e.g.a.8.8.e.u.u.w.w.9.7.( (  .| ( Y x = R.xX;Xc.",
"zXm._.%., 4 T  .y.y.w.w.e.w.w.w.p.u.y.7. . . . ./ Z C c 3 Z.mXpXt.:X#.X Y  . .) 7.y.e.<. .( / W  .| ^ ^ ( ( ( T T C m 2 ].vX>Xp.",
"zX).].%.$ $ t p s s d d d g g V s f f g B B B f w 8 7 2 , &.nX5X^.6X-.. 2 t w p s f d s p 6 5 w p s s u w p w 8 8 7 3 = -XcX>XE.",
"fX&X).J.4 v $.p.7.r.p.g.g.u.w.<.( ^ W W ( ( W V g I Y b r %.nX0X%X:X-.o c T |  . . .) ~ ^ V ^ w.w.p.u.8.~ ) 7. .( | C 5 pXcX;X+X",
"9X&X$Xp.< c p.h.T.}.oXoXoXoX|.|.F.g.a.e.e.e.e.>.Q 4. .T B ` zX7X;X#X=.o B ( 8.e.p.p.u.e.8.7.9.f.g.T.}.F.g.s.g.D.p.+.| s #XlX&X%X",
"wX&X$Xt.2 c w.e.a.a.j.a.a.a.a.a.e.a.a.a.g.h.n.h.d.n.Y.y.I w.qX&X;X#XJ.+ T  .8.8.9.w.e.e.e.8.8.<.1.8.q.q.e.e.8.<.( ( Y q E.qX%X;X",
"2X4X%X@.9 v +.t.b.b.b.g.s.s.g.b.Q.T.OX}.T.T.T.T.}.T.K.@.B @.aX&X;X(.-.o Y  .w.w. .y.u.t.w.+.y.p.w.u.f.f.u.w.9. .^ T b - ^.0X-X-X",
"3X4X=XO.% , q p h g g g j j j j j j k k j j J k j h p w - ( aX&X0X!.'   r t s p f g d h p s s s s s h u u u u 8 8 7 2 = ).8X3X5X",
";X;X).O.4 m $.g.D.D.D.g.g.f.e.8.<.1.8.a.f.h.F.h.j.f.9.^ N ( zX$X<XK.[ + X.9.0.u.u.u.u.u.u.w.7./ w.) / / 7.r.w. .( { Y w #X4X#X;X",
"#X-X=Xi.1 3 V D <.8.8.e.a.f.g.f.f.f.h.F.F.F.h.f.a.f.9.^ s ^ dXXX8XK.[ + { ^ / Q / 8.e.e.9.7.7.7.+.+.8.e.p.u.u.9. .| C 5 +X4X+X;X",
"#X).).K.4 r ^ 1.e.e.a.a.e.e.e.4.e.e.e.4.3.1.1.,.,.<.W B 5 +.8X+X;Xi.' o Y ( 1.e.w.1.,.<.w.w.w.w.w.e.f.f.f.u.e.9. .T b 5 /.4XR.-X",
")./.).I.# 3 I <.<.u.s.s.e.e.e.w.w.w.3.3.) <.w.e.u.<.( I q I.3XR.-Xx.' o B I ) <.<.<.>.>.~ ~ ~ <.<.) 7.7.8.7.) ^ ^ Z B 5 !.3Xc.=X",
"!.!.(.P., + w s V W W W ~ W g p p w w p s s d V d s 8 > : ].!.R.].P.' . < 6 p j Q Q j j j S d h w 5 8 p s w 8 8 w 5 - = (.).v.).",
"!.!.!.I.2 9 ^  . .7.w.<.<.,.) W / W W ~ ) ) ) 7.} ^ F V 8 =Xp.!.].P.' # | i.g.T.T.T.F.j.s.e.,.~ +.+.w.y.p.u.y.y. . .I w ].!.Y._.",
"R.R.R.!.2 b 7.s.D.F.F.h.h.h.H.}.}.T.T.}.}.}.F.F.F.f.u.8.g #X3.R.~.L.Y = +.s.j.h.}.}.V.h.h.T.}.}.}.V.}.|.|.|.}.F.g.w.W s ].~.!.).",
"R./.m.Y.; y <.f.h.F.k.k.l.d.h.k.h.h.h.h.l.l.k.h.F.g.s.e.j E.` E.R.Y.Y = w.g.h.l.|. X X X|.}.V.V.V.l.l.l.l.h.j.a.f.7.W p !.Y.!.!.",
"b.R.R.R.2 B u.F.}.}.}.}.}.}.}.|.|.|.oX X X XoXoXXXXXD.w.I x.@.Y.Y.K.B = +.s.h.h.}.|. XoXoXoX}.}.}.V.h.h.h.F.T.T.u.7.( f K.x.!.R.",
"Y.E.R.c.& < d j D S j j k Q Q ,.Q :.:.:.J Q Q Q / ) W f w r.x.L.Y.K.b @ V W Q :.,.,.:.:.,.,.,.:.,.Q Q D Q Q / ) / ^ V w K.x.!.L.",
"Y.Q.E.c.= 7 V S / / W W Q W Q / D :.,.,.,.1.8.8./ W ^ V w i.i.L.Y.!.n + B I S Q j j D Q / / Q / / / / D S S D / S V w > K.K.~.b.",
"Y.R.E.K.2 r ^ S F /  .7.w.w.7.7.0.e.e.e.8.e.e.e.u.w.y. .s W.i.!.R.!.n + { +.7.8.8.8.<.<.7.7.8.u.u.9.9.8.<.Q Q ) / / V p Y.Y.~.Y.",
"R.R.~.x.1 9 ^ <.7.9.w.1.1.<.7.0.e.e.8.1.e.e.e.e.8.) S d 6 A.y.!.R.].n + T ) ) w.<.8.8.8.w.7.) <.8.e.e.e.a.e.8.8.w.( W g K.Y.R.Y.",
"R.R.R.K.1 r ^ ) u.u.r.3.8.8.9.u.w.w.w.w.w.u.u.w.7.W V g p i.y.~.b.].Y @ B ( <.) w.r.e.w.w.7.w.u.u.g.b.T.Q.T.g.g.y.) ^ d p.Y.R.Y.",
"!.!.!.K., 9 B V ^ ( ( ! ( ~ / ^ T I I I U ! ( ( ^ ^ I I t i.i.L.R.(.L + B I W W ( (  .+. . .( ( ^ ( W W W ( ( O.( U H q r.R.R.R.",
"!.!.R.L.9 L R ^ | $.i.@.+.+.| T | ( ( ( ( _ +.@.J.$.$.Z.| $.i.].~.].' L $.O.+.r.+.O.+.r.$.$.O.( T R R R | O.O.$.O.O.U y r.!.R.R.",
"~.).R.L.r ' T f T | O.*.O.O.#.#.O.$.$.@.@.i.K.!.Z.Z.@.| I ( K.!.).=X' ' R ( ` i.%.O.( ( | O.%.%.$.$.#.O.| | ( ( | O.( H w.E.E.R.",
"Q.#X~.!.E ;.i.r.i.i.i.@.@.@.%.%.Z.Z.K.K.x.K.R.~.>X:X>XsX:X+.x.~.E.#X%.rXyXsX5XiXsXtX:X(.K.x.L.L.K.P.K.K.K.K.K.!.!.!.K.r.i.~.~.E.",
"M.&X+XR._ U.Y.b.~.~.~.R.R.R.R.R.Y.K.c.c.b.b.m.R.R.#X#X#X).~ c./.&X&X@.uXgXaXqXlX0X0X8X;X#X/./.).).#X+X+X+XE.E.R.(.(.!.K.r.R.#X#X",
"M.&X*XB.@.(.#X&X#X#X/.E.E.R.T.R.~.R.b.m.E./././.~.&X#X-X%XK t./.*X*X` !.c.N.+X&X&X;X&X&X&X&X+X+X+X+X+X+X+X#X&X;X:X:X[.!.@.R.=X=X"
};
