/* XPM */
static char *_e712a8e90aa4aeaf5d668bea037bfd6MfESbZbB2eGYRhix[] = {
/* columns rows colors chars-per-pixel */
"64 64 210 2 ",
"   c #53260B",
".  c #5A260B",
"X  c #56290F",
"o  c #5C2B0D",
"O  c #572407",
"+  c #5B310F",
"@  c #562B12",
"#  c #5C2D13",
"$  c #553517",
"%  c #5B3315",
"&  c #5B3A15",
"*  c #5D3219",
"=  c #5D3A1D",
"-  c #632B0E",
";  c #692E0E",
":  c #632E13",
">  c #692E11",
",  c #643214",
"<  c #6B3315",
"1  c #613A17",
"2  c #63341A",
"3  c #6B351A",
"4  c #653C1C",
"5  c #6C3C1C",
"6  c #683C17",
"7  c #713516",
"8  c #743915",
"9  c #793A16",
"0  c #72371A",
"q  c #743B1D",
"w  c #793E1D",
"e  c #643D21",
"r  c #6B3C23",
"t  c #6F3F28",
"y  c #733D22",
"u  c #7B3E21",
"i  c #6F431F",
"p  c #6A461F",
"a  c #7B411E",
"s  c #74441D",
"d  c #654223",
"f  c #6C4323",
"g  c #6C4925",
"h  c #6E432B",
"j  c #6D4B2C",
"k  c #734324",
"l  c #7C4324",
"z  c #754A25",
"x  c #7B4A23",
"c  c #73442B",
"v  c #7C462A",
"b  c #754A2B",
"n  c #7C4B2C",
"m  c #75532C",
"M  c #7D532D",
"N  c #77562A",
"B  c #724631",
"V  c #794730",
"C  c #754A31",
"Z  c #7C4B32",
"A  c #745333",
"S  c #7C5433",
"D  c #7C5935",
"F  c #7F5739",
"G  c #7E5B3A",
"H  c #745A37",
"J  c #7E6141",
"K  c #83421D",
"L  c #824624",
"P  c #894623",
"I  c #844927",
"U  c #8B4A27",
"Y  c #82472A",
"T  c #89462A",
"R  c #834B2C",
"E  c #8A4D2C",
"W  c #914E2C",
"Q  c #84522D",
"!  c #8C512E",
"~  c #83592D",
"^  c #92522E",
"/  c #99552E",
"(  c #844D31",
")  c #8A4E32",
"_  c #904F31",
"`  c #855334",
"'  c #8C5334",
"]  c #845A34",
"[  c #8B5C34",
"{  c #865439",
"}  c #8B553A",
"|  c #845C3A",
" . c #8D5B3B",
".. c #935534",
"X. c #995634",
"o. c #945A36",
"O. c #9B5A35",
"+. c #935639",
"@. c #9A573B",
"#. c #935B3B",
"$. c #9B5C3B",
"%. c #A05734",
"&. c #A25D36",
"*. c #A85E37",
"=. c #A35E3B",
"-. c #A85D3D",
";. c #846135",
":. c #8C6236",
">. c #84613C",
",. c #8B633C",
"<. c #8F683D",
"1. c #926134",
"2. c #9F6037",
"3. c #94643D",
"4. c #9C623D",
"5. c #95693E",
"6. c #9B693E",
"7. c #A86137",
"8. c #A4623C",
"9. c #A9643C",
"0. c #AD683F",
"q. c #A46137",
"w. c #835E41",
"e. c #8C5A41",
"r. c #935E41",
"t. c #9C5E41",
"y. c #A35E41",
"u. c #856342",
"i. c #8C6543",
"p. c #8D6944",
"a. c #8A6749",
"s. c #87684B",
"d. c #8C6C4C",
"f. c #946342",
"g. c #9C6343",
"h. c #936A44",
"j. c #9B6C44",
"k. c #956549",
"l. c #9D654B",
"z. c #936D4B",
"x. c #9A6C4B",
"c. c #8E704A",
"v. c #967145",
"b. c #9C7147",
"n. c #95724C",
"m. c #9C724C",
"M. c #99784F",
"N. c #926D50",
"B. c #957351",
"V. c #9D7552",
"C. c #9B7A54",
"Z. c #A36442",
"A. c #AA6643",
"S. c #A56944",
"D. c #AB6A45",
"F. c #A3674A",
"G. c #A46B4A",
"H. c #AB6C4B",
"J. c #B26B44",
"K. c #B86F46",
"L. c #B16D4A",
"P. c #A07147",
"I. c #AA7747",
"U. c #AA7847",
"Y. c #A2744B",
"T. c #AB734D",
"R. c #A4794E",
"E. c #AC7B4D",
"W. c #B2714B",
"Q. c #BA734A",
"!. c #B3784A",
"~. c #A46E54",
"^. c #A37552",
"/. c #A47A52",
"(. c #AB7C52",
"). c #A47C5A",
"_. c #A97D5B",
"`. c #B27A52",
"'. c #B2804F",
"]. c #A78055",
"[. c #AC8255",
"{. c #A5825C",
"}. c #AD825A",
"|. c #B38354",
" X c #B98656",
".X c #B4855B",
"XX c #BA8759",
"oX c #B5895D",
"OX c #BA8959",
"+X c #BD8C5B",
"@X c #BA8A5C",
"#X c #BE8E5D",
"$X c #BC8B5B",
"%X c #BF8A56",
"&X c #AD8462",
"*X c #B48760",
"=X c #B68961",
"-X c #B48964",
";X c #BE8F61",
":X c #BA8E66",
">X c #BF8F67",
",X c #B88B62",
"<X c #BB8E6B",
"1X c #BC9066",
"2X c #BE9469",
"3X c #C39463",
"4X c #C1966C",
"5X c #C0956B",
"6X c #C3996B",
"7X c #C59C70",
/* pixels */
"3X6X[.M.& D p.h.m.Y.Y.m.P.Y.I.U.U.E.E.E.|.E.E.E.E.|.'.U.U.E. XOX X+X#X#X#X#X+X+X#X3X3X#XOXOXOX X+X%X+X+X+X@XOX|.}.R.R.h.~ oX2X7X",
"3X3X/.n.& A p.m.m./././.Y.R.I.I.Y.E.(.(.|.|.|.|..X.X|.|.|.OXXX|.@X;X;X@X@X@X@X@X;X1X;X@X.X.X.X|. X|.|.|.[.(./.R.Y.Y.j.:.M }.4X4X",
"(.j.] u.d u.z.V./.)._.{.&X&X*XoX.X=X-X=X:X:X:X:X:X,XoX.X=X>X>X:X=X1X5X4X5X:X.X}.,X1X2X4X4X2X1X1XoX.X.X}.}.}.}.[.V.V.h.,.z ] m.x.",
"Y.Y.| a.= j C | D D S A A D ] ,.| | | ] ] | | | i.i.h.h.z.V.^.^.m.m.m.m.m.z.h.h.h.h.z.m.m.h.i.>.z.i.| ] | | i.z.| i.h.f.` ] Y./.",
"Y.Y.>.a.= d = p d d j j A m N N S S b g d d d g g j b b b b b g g g d d d d d d d d d d d 4 = 4 e d d d d e = * f d f 4 4 ] m.V.",
"j.Y.] u.j a.| D G D D G u.c.C.{.).).C.z.p.p.a.p.>.>.>.a.z.z.d.u.D | | | >.| D G D S S D D D D G u.u.u.u.w.G G G | i./.z.] ] h./.",
"6.E.[ | d a.i.,.M M D | >.| ] ] ] ,.>.] ] | | >.h.p.,.,.,.,.,.,.h.h.h.h.h.h.3.h.h.p.i.,.,.,.| | D ] | >.>.>.,.>.[ z M ] ~ ~ :.R.",
"5./.] D g C.V.m.m.z.i.| G D ] ] | ,.h.i.p.p.,.,.,.p.z.m.m.m.m./././.[.}.}./.m.m.m.z.h.,.,.>.>.,.] >.,.h.z.m.m././.m.R./.,.] :./.",
"5.v.>.H d J >.>.>.>.u.| | G | | u.i.p.u.u.u.| D S G | u.>.>.i.i.i.>.h.z.h.i.i.| k.z.z.k.i.u.| >.>.p.z.z.z.V.V.).B.n.z.p.D A a.C.",
"v.C.>.H $ d 4 5 k k f f f f k z 5 f f f k b k f k f f f f 5 r f k 5 5 i 5 5 k k f k b z b v n M b z k k z z f 4 5 f f d g S d.B.",
"5.(.[ | f f.g.Z.Z.Z.F.F.F.l.t.$.$.$.$.$.4.Z.S.S.o.o.$.Z.H.H.G.F.D.H.W.`.H.D.S.8.Z.S.S.D.H.D.Z.S.S.S.8.2.$.4.4.4.#.o.#.#.Q v f._.",
"6..X .[ k f.$.^ &.%.@.@.@.@.=.=.&.X.X.X.X.X.X.X.O.^ P K K P W ^ W / / / / &.7.9.7.7.7.7.A.9.9.&.&.&.&.&.7.=.O./ O.X.o.#.Q x 3.}.",
"1.(.[  .z g.Z.9.A.J.L.D.D.Z.=.%.O.&.=.=.8.=.8.8.=.=.8.8.$.O.X.O.O.=.=.%.O.O.%.%.&.=.=.=.9.9.*.9.A.J.J.J.J.A.A.D.8.8.8.4.! l  .(.",
":.j.] i.k Q ! O.&.O...^ E ! ^ ..O.=.Z.D.Z.Z.Z.Z.Z.Z.Z.$.o...E W O.A.H.L.L.Z.O.X.8.D.L.D.9.=.%.&.X.X.X.W U U O.Z.H.D.F.G.' z { m.",
",.h.u.a.4 5 < 8 9 9 w l l v I I l I I l q q 0 3 y q q q q 0 0 0 a l w 8 w 8 8 9 w L U E E K K a I l w w u u u w l l l k k M >.i.",
"z.h.i.w.f | #.$.Z.g.#. .' ` ( E ' ' ` E E '  . .' ` `  .#.#.#. .} #.#.#.g.g.4.g.Z.Z.g.g.S.G.S.G.g.t.#.t.g.g.$.#.' ` n M b z | V.",
"x.x.[  .v g.l.g.$.t.t.t.t.#.#.+.' ' ' ' } ' ' ` ) E R E ` ` ` ' ' ' o.+.$.$.$.4.g.g.4.t.$.+.+.+.+.' +.......+.+.+.` `  .n z f.m.",
"k.x. .{ k ' } +.+.' ) Y v v R E v I R R v R ( ` ' ' ' #.#.#.' ` ' ' ` ` ` ! E E E R I I I I R ( { { ` ( R R ) } r.r. . .v b h.V.",
"z.d.S | S  . . .{ { S n Z ] | e.f.x.^.^.x.f. . .e.r.f.r.} [  .} ` ` ` ` } } { } } { ` Z V V V Z C Z Z C c c Z Z C b C C j A d.s.",
"p.u.m A 1 + o , # o o o o o # o o # # o o . . O . . . . O o , o o o o . # : - : - o . . o . o # X X @ # # # X   @     @ $ j d.s.",
"p.;.m ,.] [  .[ +.' ) E E E E E ' ' E E E ' +.$.+.' ' #.+.g.$.E +.#.o.o.+.o.+.o.+.....! ' ' ' ' ' ' ' ' #.#.#. .#. . . .n m >.>.",
";.,.D h.x Q o.+.......+.X.+.+.+.+.+.+.+...' ' ' ' ' ' ..' ' ' I g.Z.Z.Z.Z.Z.Z.Z.Z.Z.8.$.O.o.....+.o.o...! E E I R I x R k z  .3.",
"] [ ] /.E #.t.+.@.@.@.@.@.+.+.' +.} ` ) ( ( ( ( v v R R R ( ( ` I ( ` ! ` E E E E E ! E ! R I l I E +.+.+.+...' ' ` Q ' ] n ] ] ",
"] | [ <X' ' #.@.@.+.) ) ( R R ( n c y k V ( Z v c t r y v Z V v y v n n ( ( R ( R `  .#.r.#.} ` ( ) ` ' ' R Y l R ` ( { ` n ]  .",
" .] i.<Xk 3 < < : , : : : 2 2 2 2 2 * % # # * 2 * * * * * @ @ @ @ # * 2 2 2 2 e r r r t h h r r 3 r y c v y 3 2 3 r r r h F w.w.",
"u.D | <X` '  .#.}  .[ [ { { { { S | | | S C Z S C b c C C C h h B h h c B c c c r r h c c h h h c Z V ( { { V Z V Z c c h | w.w.",
"z.>.,.:XM Q v v v R ` ` ' ` ` n v b v b k z v z c k k f k f r f t c c c k t t t c k y r r 5 r t k k y 5 y y k k k k r f f | z.p.",
"z.,.,.-XM ] ' ' ` ' } } ' ` ( n ( l v R R ` #. .}  .[ { ( n Z ` V ( { { ` ( R Z l v R ` { { { { ` [  . .r.f.f.#. .{ n n k | h.u.",
"h.i.| _.k R R ( ` ` ` ` ` { [  .} ` r.g.r.r.F.~.~.^.~.x.r.{ { { r.#.r.r.f.r.#.} ` '  .f.f.r. .} r.r.#. .#.f.g.g.f. .[ ` z ] p.p.",
"h.h.] m.q R v l u y q q 3 3 3 3 3 < < 0 > - > < - - - - : : : < : : < < < < < < < < > < < < < < , , , , : : : - : , < 5 5 S i.z.",
",.5.] m.n G.T.H.H.H.H.H.H.H.H.H.T.D.Z.$.$.@.o.+.+.#.' ` ) ' ' ' o.#.g.g.$.$.g.F.Z.Z.Z.F.g.$.+.' +.' ' ' ) ' +.+.t.t.#.#.] ]  .h.",
"] <.] j.s #.o.....^ W W W ^ X.O.O.$.o.^ ^ ..' ! E ' +...' E E I E ! ! E E E E E E E ) ' ) E ` ' +.+.+.#.+.+.+.+.' ' '  .` ] [ f.",
"[ b.] [ s 3.+.+.X.@.o.o.$.4.8.$.@.$.+.' I E +.+.' ' ' ' ! E E E E U E ! ..) ) ' ' E Y I ' +.' ' ` ` ' ' ' ' ' ' +.#.} ' [ Q Q j.",
"[ b.,.f.k { ` +.) ' ' ! ' #.$.$.+.+.' v q l I R ' ` ` ` ' ! E ! +.o.@.+.' E I I ( R l y l v l l v v v I Y l v v R ( ( n R Q ,.Y.",
"h.v.D | % 4 2 : : < 3 , , , < < y q q 3 < 3 y y y y y q y u u q 0 q q 3 , , : o , 2 , : , , , , , , < < < < < < : , , 2 k ] h.j.",
"h.m.| z.b k.f. .( '  .f.#. . . .} {  . .{ { { e.e.r.r.r.g.l.l.g.g.g.g.g.g.r.{ v n { { }  .r.r.r.#. . .#.#.' } #. .r.r.{ n ] h.b.",
"6.(.[ m.k  .#.#.$.+.+.o.' E E ' #.' ' ' ( n ( ` ` }  . .#.#.#.$.g.4.+.....+.' ! ` #.#.o.#.4.g.F.F.Z.4.4.$.o.#.$.g.#.#.Q x Q j.E.",
"j.R.~ h.6 R ) +._ P l I I I T ' E R R ( v v v v z l l l l v E ` E ! ! ! ! ' ' ' ' #.#.' ` ' ' o.o.' ! R I I E E  .E v k k ~ h.Y.",
"b./.] i.f S '  .+.` ` ] ] ` ` ` ` { { { ` Z Z n c c c k k c v ` ] ] ` ` Q Q ` { ` { { ` n l z z n Z Z b c n Z Z C C Z C b G n.{.",
"m.].D m + , 3 - < < < , , 3 3 3 < , , , , 2 5 5 , # : , , , , 3 < < 3 q k 5 3 , 2 3 3 , : o o # # 2 2 # # : # # * 2 2 * e F n.{.",
"R.(.[ ] v g.F.F.+.+.$.4.#.+.+.) I L l l v v v y y l v R ( R R ) ' ) ( ) ` ` ( ( ( ( ` ( v l v R ' +.+.' E I E ` ( ` ` ' n x Y.E.",
".X`.[  .x g.F.Z.Z.Z.D.H.S.S.H.Z.y.@.+...) ....) I ..+.+.+.@.@.+.) ) ) ) ) ) ' +.+.+.+.' ) R ) ' @.$.$.$.$.O.@.$.Z.Z.g.4.' ! |.E.",
"XXE.~ 1.s #.4.$.$.O.O.O.^ ^ ....X.&.=.$.O.=.Z.=.=.D.D.D.D.D.Z.Z.$.#.+.#.$.+.#.+.+.' ' ' ` E E E E E ) ' ' E E E E R E ' R x .X|.",
"OXE.[ j.x o.#.+.......[ ! ! +...X.$.Z.8.$.8.Z.$.8.8.8.8.Z.$.@.+.#.' ( E ` ` ' ' E E E ` ` ` ` ` } ' ' ' ' ` ) ( ( ( ( n v z oX}.",
"(./.] ,., q q 0 7 < < < < 7 0 0 q q y 0 3 q q q < < : , < - - - : : : : : : < < < < < , : : : : : : : o o : : # . # 2 # 4 b &X/.",
"Y./.| i.r S {  .#.+.}  .#.#.+.+.` '  . . .f.f.f.f.f.r. . . . .}  .r.k.x.l.g.#.` ( ` } } { ( ( Z V ( ( n Z { } { { { e.{ M b C.C.",
"m.m.] ] 5 n ( ` ) ` ` ` ' ' +.+.' ' +.$.+.#.+.#.' +.' E R ( R I ( n n n R R l k l v ( ` ' ` ` ( ` ` ' ' ' #.#. .} ` } [ ` M b.(.",
"m.Y.] ] f ` ` ' +.+.[ ' ' ' ` ' ` ! ' ' ` E E E E E I I I I Y I v n R R R ` ` ` ( ( R R R R R R ` ` Q ` ' ' ` ( R R n k n ,.m.m.",
"x.z.| S 5 b ` ) ) ' #.#. . .} ` ` ` ` ` R R ` #.g.r.+.` E ` ` E R ( R v v R ( ` ` ` ` ( E ( ( ( ( n n ( ( ( R ( R R [ ] S i.z.z.",
"h.f.>.| 5 k y w u l l x l l l w < < < 3 < < 0 q w q 8 7 8 I ! ..+.' ' +.' E I E ' E I l l u q < < < < 3 q q q q q q k q z ,.z.>.",
"f.,.>.| b  .t.t.@.X.@.O.....X...+.+.+.+.+.+.@.@.X.X.+.^ ..O.Z.D.D.Z.A.D.D.A.A.D.D.W.W.W.W.H.Z.$.Z.9.Z.A.D.D.D.D.D.9.Z.D.4.o.3.3.",
"3.,.[ ] k g.t.@.y.=.=.8.=.=.-.=.&.$.$.8.8.8.=.$.8.8.8.=.=.=.9.9.9.9.A.9.9.9.9.7.7.9.9.q.&.7.9.7.7.7.7.7.7.7.=.&.%.&.O.2.o.! 6.1.",
"3.:.[ ] 5 g.$.=.=.=.&.=.=.-.A.A.A.9.9.9.9.9.9.9.9.9.9.9.9.0.A.0.J.K.Q.Q.K.J.0.7.0.K.Q.Q.Q.Q.K.J.Z.Z.8.8.$.$.$.$.X.O...$.o.Q 5.[ ",
":.;.] ,.6 ' ' @.X.......^ ..O.O.O.O.X.X.X.X.X.X.8.O.O.O.O.$.8.8.O.O.O.7.7.O...X.O.O.X.X.O.=.$.$.$.+.+.' ' ' +.+.@.+.+.g.f.Q f.,.",
"u.>.D a.% r : : > , , , o , , : ; ; ; - - ; > ; > ; ; ; > < < < q 3 < 0 3 < < < < < < < 3 < , : 3 , : : - - : : : : , 2 b D z.G ",
"z.i.G N.g | { ( v R ` ] ] | } ` ' +.#.#.+.+.#.#.} #.#.r.#.} } } {  .#.#.#.#.#.' ` ` ( ` ` ` {  .} ' } ' ` R Y R ` ( } '  .| z.u.",
"j.f. . .k ` #.....' ' ' ' Q ` ....o.@.+...+.+.+.+.+...' ' ......+.+.@.@.@.O.O...^ E E ..+.' ! ' ....O.$.$.O...^ ....O.$.4.3.j.3.",
"Y.3.]  .k #.#.t.t.y.$.$.+.+.@.@.4.4.$.$.$.Z.Z.$.@.+.E E ' +.+.+.+.+.O.O.O.O.$.$.$.O.O.O.O.+.....=.8.Z.D.H.L.L.D.A.D.D.S.4.6.Y.6.",
"/.h.] ] 5 { ( ..+.@.$.$.$.$.t.@.$.#.#.' ' #.#.3.#.} } #.g.g.f.r.g.Z.g.4.$.$.$.$.Z.D.H.T.T.H.H.F.g.Z.Z.g.Z.F.Z.g.Z.Z.g.g.[ f./.z.",
"}.v.,.g 1 n v l u L L I I I T T I I a 8 7 8 w l q w l w w w l l w q w w w a L L w a l l l x a 8 q w u q q w l l u u l I l ,.}.m.",
"].:.N p z j.G.Z.Z.$.O.o.o.O.O.=.=.=.O.=.8.A.A.8.=.8.=.O.X.X.X.....! ' +.$.$.=.8.8.8.$.o.+.4.4.$.Z.Z.Z.8.O...X.=.=.$.@.$.! 3.(.5.",
"/.] z M i  .' +...E E ! ! ! ..X.=.=.8.A.D.L.L.L.A.A.A.8.8.A.=.X.$.o.+.o.O.......E E U U E ..+.......@.$.O...$.D.D.8.8.4...o./.[ ",
"/.[ M f.f Z ( ) R Y v R ` ( ( ) E ) ) E I I E ! E T I P T T T I E E I I T T U E T E E E I I l w I I E E ) E ) ' ' E ) Q ` n m.| ",
"/.] n | 4 c ( R ( v y y k k k l l l l l I I I I I I E +.#.' E ` E E E E E ! O.=.Z.Z.Z.4.+.E I l l Y R ( ` ` ) R Y l l k b k m.u."
};
