/* XPM */
static char *_f8b25f079154a2ce2b72de6f3fb06f0PZuEjnC0HG3eamyy[] = {
/* columns rows colors chars-per-pixel */
"64 64 229 2 ",
"   c #2E1301",
".  c #331703",
"X  c #361B0A",
"o  c #3B1E0C",
"O  c #361A06",
"+  c #3C210A",
"@  c #3D2211",
"#  c #431E05",
"$  c #4A250C",
"%  c #4D290B",
"&  c #452109",
"*  c #562B0C",
"=  c #5C2B0D",
"-  c #56260C",
";  c #59310D",
":  c #452512",
">  c #4B2612",
",  c #4C2B15",
"<  c #4B2E1B",
"1  c #462912",
"2  c #542C13",
"3  c #5C2D14",
"4  c #532C1A",
"5  c #5B2E1A",
"6  c #532715",
"7  c #4D341C",
"8  c #4B3217",
"9  c #543214",
"0  c #5C3315",
"q  c #5D3A16",
"w  c #54341C",
"e  c #5C331B",
"r  c #54391C",
"t  c #5C3A1D",
"y  c #563B15",
"u  c #612E0E",
"i  c #622D13",
"p  c #622E18",
"a  c #633315",
"s  c #6A3414",
"d  c #63341B",
"f  c #6A351B",
"g  c #633B1C",
"h  c #6B3C1D",
"j  c #663A16",
"k  c #743C1D",
"l  c #743B1B",
"z  c #4E3223",
"x  c #553322",
"c  c #5C3521",
"v  c #553C24",
"b  c #5C3C25",
"n  c #5E3E2A",
"m  c #633622",
"M  c #643C23",
"N  c #6B3D23",
"B  c #643D2B",
"V  c #6A3E2B",
"C  c #733E22",
"Z  c #723E29",
"A  c #793E24",
"S  c #5D411A",
"D  c #64421D",
"F  c #6B421C",
"G  c #7A441E",
"H  c #71441C",
"J  c #5C432B",
"K  c #654224",
"L  c #6B4324",
"P  c #6C4925",
"I  c #65422B",
"U  c #6B442A",
"Y  c #664A2D",
"T  c #6C4A2B",
"R  c #634925",
"E  c #724325",
"W  c #7A4424",
"Q  c #734B26",
"!  c #7B4926",
"~  c #73442B",
"^  c #7B452B",
"/  c #744B2C",
"(  c #7B4A2C",
")  c #74512C",
"_  c #7B522D",
"`  c #7B5127",
"'  c #644532",
"]  c #6D4532",
"[  c #6D4A32",
"{  c #664C33",
"}  c #744632",
"|  c #7A4631",
" . c #744B33",
".. c #7C4C33",
"X. c #744D39",
"o. c #7A4E39",
"O. c #6E5431",
"+. c #755233",
"@. c #7C5333",
"#. c #7D5A35",
"$. c #7C543A",
"%. c #7D5A3B",
"&. c #755638",
"*. c #704F40",
"=. c #7D5D41",
"-. c #7C5744",
";. c #7D6249",
":. c #834B2D",
">. c #8A4E2F",
",. c #80472D",
"<. c #83522F",
"1. c #85562F",
"2. c #834E32",
"3. c #8A4E32",
"4. c #844E38",
"5. c #845234",
"6. c #8B5334",
"7. c #835B34",
"8. c #8A5D35",
"9. c #84543B",
"0. c #8B553A",
"q. c #845C3C",
"w. c #8C5A3B",
"e. c #915635",
"r. c #935936",
"t. c #9B5937",
"y. c #925639",
"u. c #935B3C",
"i. c #9C5D3C",
"p. c #995737",
"a. c #A35F3B",
"s. c #8D6236",
"d. c #85613C",
"f. c #8C633C",
"g. c #8D693D",
"h. c #93653D",
"j. c #9C633D",
"k. c #946A3E",
"l. c #9A6A3C",
"z. c #976837",
"x. c #A4623C",
"c. c #A9643E",
"v. c #A76C3F",
"b. c #825641",
"n. c #845C41",
"m. c #8C5D42",
"M. c #935D41",
"N. c #995E41",
"B. c #856243",
"V. c #8B6443",
"C. c #8D6945",
"Z. c #8C6549",
"A. c #8D6B4B",
"S. c #846448",
"D. c #936543",
"F. c #9B6343",
"G. c #946A44",
"H. c #9A6C44",
"J. c #936C4A",
"K. c #9A6D4A",
"L. c #996449",
"P. c #9D7245",
"I. c #95714C",
"U. c #9C734B",
"Y. c #9E794D",
"T. c #967346",
"R. c #946D51",
"E. c #996F52",
"W. c #957252",
"Q. c #9C7452",
"!. c #9D7954",
"~. c #9D7A5A",
"^. c #9F7658",
"/. c #8C6D51",
"(. c #A46542",
"). c #A36B46",
"_. c #AB6A46",
"`. c #A4664A",
"'. c #A36C4A",
"]. c #AC6E4A",
"[. c #AA6544",
"{. c #A27246",
"}. c #A3754B",
"|. c #A9754D",
" X c #A57A4D",
".X c #AA7B4E",
"XX c #B1784D",
"oX c #A27552",
"OX c #A47B53",
"+X c #AB7D53",
"@X c #A47D5A",
"#X c #AA7E5A",
"$X c #AB7153",
"%X c #B37E52",
"&X c #A96E50",
"*X c #A77E60",
"=X c #AF814F",
"-X c #A78157",
";X c #AC8155",
":X c #A6825A",
">X c #AC835B",
",X c #B38455",
"<X c #B2855B",
"1X c #B5895E",
"2X c #BA8B5C",
"3X c #B88758",
"4X c #AB8561",
"5X c #AE8963",
"6X c #B18661",
"7X c #B48B63",
"8X c #BA8E62",
"9X c #BA8D63",
"0X c #B58D6A",
"qX c #B98F69",
"wX c #BC9164",
"eX c #B6916B",
"rX c #BB936A",
"tX c #BB946B",
"yX c #BE9A71",
"uX c #BE9674",
"iX c #C5935E",
"pX c #C39464",
"aX c #C1966B",
"sX c #C5996D",
"dX c #CB9E6D",
"fX c #C39A73",
"gX c #C69974",
"hX c #D09D6E",
"jX c #C9A177",
/* pixels */
"#X>XaXeX{ < U P T P Q L h K P ) ) P L ) _ ) Q Q _ ) ) _ _ _ _ Q @._ _ Q Q P P Q L L L D L L P L T U D g D D D D t 9 9 G.-X1X2X2X",
"+X7XsX>XY { W.I.@X-X>X>X#X@X@X@X>X6X7X7X0XeXqX6X>X>X5X0XeXeX0X>X6XqX7X<X6X7XqXqX0XeX0X0X7X6X5X>X@X-X-X>X-X-XOX@X~.J.#.G.-X9XpX,X",
"3X,XiX2X) R V.U. X X+X;X>X<X1X1X1XwXwXwXwXaXsXaXwX2X9X9XwXwXwX9X2X9X9X2X<X1X2X1X<X<X<X<X<X<X+X+X;X-X;X.X X}.Y.Y.J.d.@.D.7X9XpX,X",
".X.X,X XP +.I. X-X>X1X2X9X9X1X<X1X1X1X1X1X<X1X9X1X<X1X9XwXrXwX9X<X<X<X>X+X+X>X<X<X<X<X<X<X<X<X<X>X-X+X X+X;XOXOXI.J.q.7.OX;X9X.X",
"K. X,XU.R ;.~.Q.!.~.OX-X#X@XOX!.J.J.I.@X>X>X5X0X0X7X5X7X7X7X7X5XeX5X>X!.J.V.C.C.J.J.J.J.C.C.V.V.J.C.C.G.J.J.J.Z.Z.B.&.%.!.oX+XH.",
"I.U.+XG.r J t q q q q q g g g g D D g D U T / _ _ P L D g D D D q D L D g D L L g g q q g D L T K U U K K D K R b w 9 / Q.oX+XP.",
"G.}.3XU.I ;.S.V.B.V.D.D.D.D.V.f.G.D.f.f.f.G.U.U.#X#X>X<X<X<X<X>X0XaXgXfXrXqXqX7X7X<XOXU.G.D.D.K.J.K.K.J.G.D.G.J.Q.I.8.@.G.+X3Xl.",
"H. X3XH.t =.Z.J.K.I.K.H.G.G.J.J.D.h.D.G.G.h.h.h.G.H.U. X XOX+X+X+X>X9X9X1X<X3X9X3X<X%X+X|.}.).}.oXoXoXU.P.H.k.g.8.f.7.7.P..X3Xl.",
"h.}.3XP.K /.!.OXOXY.Y.h.H.G.D.f.H.h.h.H.H.H.H.).}.}..X+X+X+X+X.X X X}.H.s.H.}.+X+X.X.X.X X X X}.Y.}.P.P. X X X;XOXY.f._ k..X2Xl.",
"h.k.,X}.y S.Q.I.!.OXOXOXOXoX@X@XoXK.K.G.L.G.H.K.D.D.H.G.H.H.H.G.G.U.Y.OX+X<X<X<X+X%X<X#XoXoX#X<X6XwXtXsXwXwX1X1XOX@XI._ G.H.<XH.",
"U.U.;XY.7 J T +.) P q g U g U t K K K K K K U T K K K M M M U U U U K L L E E E E E ~ ~ L L ~ U U K K L q D L T @.R K %.W.J.OX}.",
"K.U. XY.b J [ %.%.+.g & U  .M [ I U [ [ [ ] U U ] ] ] I B I I U M U U U V L U / U N U ~  . . .U ] I U t 9 9  .B.n.S.[ %.^.OXoXU.",
"+X}.,XOXt I n.q.q.B.$.U 2 m K U X.o.$.$.$.$.$.$.$.$.o.X. .] }  .$.q.n.9.@.( | ..q.q.q.9. . . . .] B x M  .q.n.Z.R.n.@.V.oXG.;X+X",
"}.H.+X+X9 1 X.Z.q.Z.C.@.q.2 M U N N N d d d e 3 3 3 5 5 3 3 3 3 0 3 3 = 3 = i a a f h N d a d e 6 4 B m Z.q.E.E.K.B.h 7.OX}..X.X",
"}.Y.+XOXw . t %.A.C.C.Z.n.&.9 t E ^ ^ ^ ^ ( ( ( ( ( ( 2.4.4.5.0.2.2.6.6.r.6.y.y.t.u.u.u.u.6.2.~ t T T B.C.OXI.Q.J.K # d.oXU.}..X",
"}.H..XOX8 + M e +.W.B.V.A.%.A.t L ^ 2.2.:.2.:.:.:.,.^ :.2.2.3.6.y.y.N.i.(.i.(.[.[.F.N.u.6.2.^ h U ) d.U.U.~.U.V.g 9 % q.oXH. X}.",
"oXH.}.OX8 + I U V +.OXf.J.J.B.q.N 0 ~ ( ^ :.6.! :.6.6.6.6.6.0.6.6.:.:.>.:.,.,.^ :.W ^ ^ N V M T d.G.G.OX6XK.V.g c c 2 @.oXU.H..X",
"+XH.}.-X7 @ ] } / d / Q.J.J.f.f.B.U L V.D.M.0.D.u.u.r.h.u.u.:.2.0.0.0.w.6.6.0.0.5.@.| ~ V U R %.f.P.OX6XJ.V.g e c x > %.OXP.{.+X",
"+XH..X>X<   4 2 3 2 * j K.Z.G.G.f.q.%.e 2 e 2 3 a u u s - d N d d i = = = u a 3 3 5 > & U U n.V.V.0XuXE.V.g & # o o O =.@XY.}.+X",
"|.h.+X5X7 o ] o.o.../ Q h J.V.C.G.8.B.Z.m  .b.m.m.2.0.6.D.D.d $.w.0.0.w.w.w.9.5.o.[ I +. .q.U.H.#X5X@X/ g U X.X.*.' < =.Q.H.OX2X",
"}.k.+X5X8 X V } 9...5.@.@.0 !.J.H.H.G.Q.K.g | 5.4.w.0.6.w.^ ( G.F.F.L.L.D.M.M.M.m./ U D U.+Xj.%X+XOXh L E E / V B b , q.U.{.|.,X",
"H.H. XeX8 @ } $.$.q.5.9.@.E L q.G.Y.k.U.>XV.h ~ ~ Z | ( ( 2.w.h 6.:.:.2.2.| ( ~ d K Q oXP.{.|.+X}.Q E ~ ( ( @./ I B 2 q.H.{.|.3X",
"}.}.P.eX8 @ ] 9.n.9.w.^ 9./ ~ h K.J.-XD.U.qXQ.d M V m  .$.L @.h W W ( ..o.X.] K / Q H.H.}.>XOXOXU L L ~ / ~  .X.] B w n.I.}.P.9X",
"H.}.P.yX8   6 5 e 3 = a = 0 a * M q.V.-X}. X<XQ.V w x x 4 2 3 * * = e 5 6 4 b R ) G.P.{. X#X!.U 9 e M V d 3 3 e x < > %.I.}.H.9X",
"H.}.P.tX7 o  .o.9.0.w.w.9.5.4...X.M V.f.>X+XOX0X@X4 B B ] ] U M U K I ] B B I &.-XY.H. XG.!.e t M U } o...o.~ V B c > n.!.Y.P.1X",
"H.}.P.eX7 . m N E ( 5.5.6.5...^ ~ V L Q k.;X X+X5X@XM M I ] M K M U M c w U $.Q.G.P. XP.oXq 9 m M N V Z N N N L c x $ q.U.}.}.3X",
"H.U.P.>Xr X B | 2.5.5.6.6.5.2.:.:.^ h ! H h.+XOX+XsXgXa d U T  .X.I U g K 5. XF.}. X+XU.j h ~ | 5.2.0.u.N.u.6.4.V m 2 D.P.{.{..X",
"D.H.P.-Xv X M ~ 5.2.:.:.5.6.6.w.6.6.w.w.E ! U. X X3XgXgX5.g X.X.-.[ K K f.H.H.).}.7Xf.g / ..9.0.u.0.0.M.N.u.0.5...N 2 Z.G.P.{..X",
"H.}.}.Y.8   e f f f l l s s s s s s a 3 0 e / J.U.G.>XfXfX+., : & b M %.I.Q.oX#X0XV.t % 2 2 3 = = * 3 3 = = = 3 5 > $ B.G.}.}.}.",
"H.}.}.oXb 1 b.M.L.`.'.'.].&X$X$X'.K.D.m.n.9.~ / G.oXf.>XeX0Xn.2 K  .Z.I.OXI.Y.0Xq.g $.$.9.9.5.w.2.5.5.0.0.6.5.9.o.] e %.G.}.oX}.",
"}.+X}.-Xb o } ( :.<.>.>.>.6.6.6.u.6.6.0.2.0.5.^ F D.oX_ OXeX0XQ F G.U.U.}.U.eX) 0 L | 2.:.( 6.6.u.w.0.6.y.6.6.:.} U e q.}.OX X|.",
"<X<X}.>XJ X ..4.6.w.u.u.u.F.F.N.r.u.6.2.2.2.5.2.^ h oX5XU.U.` 1.h.H.}.H.OXeXL K T N E ( 3.0.:.5.5.6.0.6.6.6.5.5.} M 9 q.<X+X X+X",
"wX<XOX:Xv + U ..( ..5.0.0.w.M.w.r.6.2.W N ~ | } | } f D.#XQ F g.P.H.}.+X#XL e I I U V L E L ~ ~ ^ ( ^ | ^ ^ ( ~ ] B e Z.eX-X+X+X",
"pX;X+X5Xv . 2 = a d h h f f h k k W f C h N N U M m d e ( @.OXOX}. X}.Q.N % $ w c c e d d a j j a s f f f d d 0 4 6 $ C.tX;X;X+X",
"hX,X+X0Xn : ~ :.2.2.w.M.u.0.0.0.6.w.0.^ 5.9./ 9.$.X.M K q.rX>XOXY.>XZ.K M e ~ ~ ..0.0.w.N.u.p.p.r.r.y.y.y.y.e.6...N = H.pX.X.X,X",
"pX.XH.0X' : / 6.u.0.6.0.6.2.3.2.0.5.5.5.^ E 4.~ V U U !.fXqXOX}.>XJ.) =./.K 3 ( 0.w.5.0.N.`.[.[.x.j.u.u.u.u.u.w.5.N * G.pX.Xv.%X",
"dX,X8.4X' . N ^ 2.^ ^ ,.:.:.2.5.5.| | 5.~ Z d N U / U.yX7X-X+X<XI.P C.Z.A.C./ q ..m.0.2.2.3.6.6.5.5.| | | | ..} ] c $ Z.yX+Xs.OX",
"jX,X1.!.{ O ~ :.5.2.6.6.6.:.:.2.5.0.0...../ ~ / g OXjX7XY. XqX8.K W.I.U.U.U.d.T e U ..4.~ Z ^ | ( | ~ } | | } T I w > W.jX>X8.U.",
"dX,XG.:X{   * = a i s s s s s s a f 3 d 2 2 $.( qXjX>Xs.H.rXf.0 3 E +X+X{.P.Y.C./ e - 2 3 - 5 3 d d i p p i 3 2 w , $ ~.jX>XG.H.",
"sX.XU.!.J 1 $.w.0.w.u.L.H.F.w.<.^ E N L M q.g uXfX<XP.h.7Xf.g / | N i <X+X{.U.K.I./ g ~ ~ ~ 9.m.M.u.0.0.3.2.5...o.B 2 4XyX X XH.",
"pX.X+XK.' , ..0.N.N.`.F.F.F.F.u.u.5.( / @./ 5X0X>X}.oX#Xf h / / ..| / N oX6XOXP.k.U.q.g M / 5.5.u.u.M.u.u.y.r.w.../ d G.wX.X}.l.",
"2X.X+XK.n & ( 6.r.u.N.i.u.u.6.r.5.@.5.q.Q 7X-XOX#XoXJ.w.@.q.V.q.9.9.b.$.e *X6X+X}.s.OXd.; / _ 5.5.6.0.2.2.:.,.^ ~ N * f.<X.X.Xl.",
"3X}.+XJ.b o ~ :.:.5.:.2.^ ^ ^ ( @.( _ 7.9X;X X+XOXV. .m ..( ^ ^ ^ E  .U X.t q.5XOX;Xk.Y.7.q K ~ ( ( ..4.| ~ ~ / V m 2 Z.5XOXOXh.",
"9X.X>XJ.x . e f f E C E h j E a g $.7.aX{..X1XY.Z.T e 5 e i a s h ; a g V e e J.>XP. XT.oXJ.e 9 e 0 5 e d d 3 2 2 , & Z.>X-X#Xh.",
";XP.>XA.7 . M / ..5.@.@.q.@. .U @.J.7XoXU.;XH.7.K T o.9.9.0.0.:.8.h.F.F.M.4...g 5.@XU.+XH.oXJ.U g ~ o.o.5.9.9...X.U 9 W.>X X+Xh.",
"2XY.>XA.7 X M ( | ..../ ../ g $.OXOXK.G.<XD.5.0 h / @.~ ^ ( ( ^ ^ ,.:.,.^ 2.C E N 5.oXK.+XK.oXW.d N / 9.q.9.5.9. .K 2 J.-XP.+XH.",
"3Xk.OXZ.x @ V ^ | 5.@...~ U  .J.G.h.K.Q.J.n.g g E ^ ! E <.^ ^ ..^ ( ( 2.( ( 5.^ E N ~ oX>X+XP.P.D./ N / 5...E L M g % G.>Xk.OXH.",
"+Xh.OXJ.7 O d Z ~ | / ..V g J.q.G.K.Q.J.$.2 U | 5.( G G ,.:.( | ( ( E k W W W :.:.^ N E oX X=X{.Y.q.U f g N L L V m * G.>Xg.}.k.",
"}.h.}.I.w O M V M I t U / d.q.J.J.K.J.@.g d g h E l l G :.e.u.F.(.(.(.(.x.t.p.i.t.>.:.k W H. X;XK.J.V.q.3 N / ~ M e * Q.K.g.P.H.",
"h.h.U.J.w @  .X.X.[ K P d.d.K.K.J.Z.@.K ( 9.6.u.r.u.y.e.r.j.(._.(.c.x.c.x.a.c._.[._.j.).6.l K.}.7XOXK.D.@.a q.m.q.$.L D.J.s.}.k.",
"s.H.K.C.7 @  .} T U @.d.G.V.J.m.oXE f 5.w.6.y.j.j.(.x.a.i.x.x.x.c.x.c.c.c.x.x.x.c.(.(.r.j.u.s 8.>XrX>XH.K._ * / o.} e V.J.U.H.k.",
"8.G.D.Z.z @ I U M _ #.g.G.U.D.L.f ( w.u.F.`.F.(.[.[.[.(.[._._.c._._.].]._.(.x.x.XX_.|.).).h.u.H _ oX7XoXG.J.B.g M U e B.8.G.k.P.",
"7.D.f.A.z X c L / 8.G.g.k.D.oXf E E ~ E ( 2.,.:.3.6.3.>.6.u.i.u.>.6.6.>.>.>.:.>.:.6.5.u.5.w.5._ F 1.U.>X>XC.d.B.t r t B.Z.G.D.s.",
"f.G.V.R.< X c / 8.I.U.k.G.G.d 5 p a E E f C A C k k A k k k k k k k W W W C C C E s C h Z h Z h j F 7.C.OX4XZ.Z.&.9 + %.V.J.G.G.",
"d.G.G.W.7 <  .B.I.I.g.T.I.0 V | ( 5.2.:.0.y.2.6.y.y.u.u.y.6.>.>.3.3.y.y.y.6.6.2.:.^ 2.5.^ 6.2.5.5.( E E K.oXOXB.B.T % Z.V.G.u.}.",
"q.G.G.I.v J q.D.W.I.I.C.; M ~ ~ 4.:.6.6.5.6.6.6.3.,.W ! ,.,.,.,.>.3.3.3.3.6.3.5.:.6.:.2.6.:.,.2.2.5.( ^ / oXE.!.B.n.g q.D.K.L.`.",
"q.G.G.!.r Y V.Q.W.~.B.q M T  .$.5.5.2.2.5.0.5.5.2.^ W W :.5.<.:.:.3.6.0.6.2.5.5.( 2.5.0.2.2.4.M.m.m.9.D.q.h E.J.Z.%.U $.V.D.H.}.",
"m.J.G.I.r &.G.U.Q.%.t t [ U M I K L N N E / / / / / ( _ @._ ( @.( ( E ^ ~ ~ ( ~ ( ....@.2.| / E ~ / N L K g T B.%.+.U q.G.D.h.}.",
"D.K.H.Y.D #.f.f.+.T R Y T +.+.T  .+.+. .+.@.$.q.B.q.B.J.I.J.Z.Z.J.J.V.Z.V.B.B.%.$.@.+.+.@.$.@. .T  . .T / T y O.O.R y ) C.C.k.Y.",
"D.G.H.Y.y D F j t M R [ U +.&.+.+.@.$.@.%.q.B.J.Z.q.@.@.@.@.@.#./ _ +.@._ _ #.#./ / / / ) +.@.+.@.+.+./ / P T P T R S ) I.T.k.T.",
"G.K.}.OXR %.s.h.f.V.B.Z.q.q.$.7.f.f.f.f.h.D.G.H.+X<X9XqX9X1X<X>XeXfXjXjXrXqXrXrXsXwX-XH.g.h.G.U.J.D.D.J.D.D.!.G.Q.I.d.7.G.P.P.OX",
"D.U.}.Y.D C.H.k.G.Q.I.G.G.G.G.K.G.G.h.h.k.k.k.H.k.H.}. X.X,X,X;X<X7X9X9X<X,X2X3X,X,X+X}.}.P.H.G.}.}.}. XH.H.h.G.G.G.f._ D.}. X.X",
"s.U. XOXT W.+X|.+X}.H.H.P.H.G.D.G.D.D.D.H.P.P.Y.}.}. X+X+X+X+X}. X XH.k.s.l.}..X.X.X.X.X.X}.}.}.P.}.{.}.}.,X+X2X>XOXG.<.h. X+X X",
"s.H. XoXR A.oX|.+X}. XP.P.P. X}.U.U.G.G.H.H.H.U.G.G.H.H.l.h.l.P.H.P.{.{.{.|.,X,X%X.X.X.X}.{.}.+X,X1X3X2X2X3X3X3X<X+XoXq.h.}.|.|."
};
