/* XPM */
static char *_36fd898b2294130c1a5f06020def2e4c5u8ykFplssBzrA1[] = {
/* columns rows colors chars-per-pixel */
"64 64 236 2 ",
"   c #2D1402",
".  c #2F1D07",
"X  c #321403",
"o  c #3A1A06",
"O  c #351A0A",
"+  c #3B1C0A",
"@  c #381505",
"#  c #341409",
"$  c #3B210D",
"%  c #3C2414",
"&  c #451E07",
"*  c #421D14",
"=  c #42220B",
"-  c #4D250C",
";  c #4B280B",
":  c #53230C",
">  c #5A250C",
",  c #542C0E",
"<  c #5D2A0D",
"1  c #442512",
"2  c #462914",
"3  c #4C2B14",
"4  c #462A1A",
"5  c #4D2D1B",
"6  c #4C2515",
"7  c #532612",
"8  c #522C15",
"9  c #5C2C13",
"0  c #5B2F1A",
"q  c #552F1A",
"w  c #4E301D",
"e  c #47321F",
"r  c #543116",
"t  c #5C3215",
"y  c #54321C",
"u  c #5C331B",
"i  c #5D391C",
"p  c #56300C",
"a  c #612D0E",
"s  c #61300F",
"d  c #632E15",
"f  c #632F19",
"g  c #633215",
"h  c #693415",
"j  c #643916",
"k  c #63341B",
"l  c #6A361B",
"z  c #633B1D",
"x  c #6B3A1D",
"c  c #6E3A15",
"v  c #723B1D",
"b  c #70361E",
"n  c #4A2F22",
"m  c #562A21",
"M  c #4D3323",
"N  c #543423",
"B  c #5C3624",
"V  c #5D3A24",
"C  c #5C3B29",
"Z  c #563829",
"A  c #5D3D31",
"S  c #623722",
"D  c #643B23",
"F  c #6B3C23",
"G  c #633E2B",
"H  c #6C3E2A",
"J  c #693723",
"K  c #723D22",
"L  c #793E23",
"P  c #763F2B",
"I  c #65411F",
"U  c #644117",
"Y  c #5C4124",
"T  c #5F402B",
"R  c #644324",
"E  c #6C4324",
"W  c #6B4A24",
"Q  c #65422B",
"!  c #6C432A",
"~  c #6C4A2C",
"^  c #67482A",
"/  c #744224",
"(  c #7B4325",
")  c #724B25",
"_  c #74442B",
"`  c #7B462C",
"'  c #734B2B",
"]  c #7C4A2D",
"[  c #7C4927",
"{  c #74512D",
"}  c #7A522C",
"|  c #7C562C",
" . c #6C4431",
".. c #6C4B32",
"X. c #634633",
"o. c #734631",
"O. c #7B4632",
"+. c #734C32",
"@. c #7C4C33",
"#. c #7C4E3A",
"$. c #734B39",
"%. c #6C5235",
"&. c #755334",
"*. c #7B5434",
"=. c #7C5935",
"-. c #75543B",
";. c #7A553A",
":. c #7D5B3A",
">. c #7E5A41",
",. c #7A5240",
"<. c #814625",
"1. c #844B26",
"2. c #81462A",
"3. c #834C2D",
"4. c #884D2F",
"5. c #84512D",
"6. c #8A512F",
"7. c #844D33",
"8. c #8A4E32",
"9. c #834E38",
"0. c #8A4E39",
"q. c #844631",
"w. c #845234",
"e. c #8B5334",
"r. c #835B35",
"t. c #8B5B35",
"y. c #84533A",
"u. c #8C553A",
"i. c #835C3B",
"p. c #8C5B3C",
"a. c #925535",
"s. c #945936",
"d. c #91563A",
"f. c #935A3C",
"g. c #9A5C3C",
"h. c #995936",
"j. c #A15D3B",
"k. c #8C6136",
"l. c #84623C",
"z. c #8B633C",
"x. c #8D6A3D",
"c. c #816037",
"v. c #906235",
"b. c #92653D",
"n. c #9C623D",
"m. c #926A3D",
"M. c #98693A",
"N. c #9E703F",
"B. c #A5623C",
"V. c #A9653D",
"C. c #A76337",
"Z. c #835D42",
"A. c #8C5C41",
"S. c #855A45",
"D. c #935D42",
"F. c #9B5F42",
"G. c #856343",
"H. c #8C6543",
"J. c #8D6944",
"K. c #8B6549",
"L. c #8E6A4B",
"P. c #85664A",
"I. c #946443",
"U. c #9B6344",
"Y. c #936B45",
"T. c #9A6D44",
"R. c #936549",
"E. c #9C6649",
"W. c #946C4A",
"Q. c #9A6D4A",
"!. c #967445",
"~. c #9B7146",
"^. c #95714D",
"/. c #9C734C",
"(. c #9C794C",
"). c #926E52",
"_. c #957252",
"`. c #9C7452",
"'. c #9D7A52",
"]. c #9A7359",
"[. c #9B7A56",
"{. c #846550",
"}. c #A46542",
"|. c #AA6642",
" X c #A36B44",
".X c #AA6946",
"XX c #A36B4C",
"oX c #AC6D4A",
"OX c #A16549",
"+X c #B06842",
"@X c #A17245",
"#X c #A2754C",
"$X c #AD734D",
"%X c #A47B4D",
"&X c #AA7C4E",
"*X c #A67647",
"=X c #A86E51",
"-X c #A56C50",
";X c #A27552",
":X c #A87454",
">X c #A47A53",
",X c #AA7D54",
"<X c #A47B59",
"1X c #A97D5A",
"2X c #A2765B",
"3X c #B27F54",
"4X c #9A825C",
"5X c #AC8355",
"6X c #AD835A",
"7X c #AA855A",
"8X c #B38455",
"9X c #B2855B",
"0X c #B4895D",
"qX c #BA8D5D",
"wX c #B98756",
"eX c #9F8260",
"rX c #AD8461",
"tX c #AF8F68",
"yX c #AB8666",
"uX c #B18662",
"iX c #B48B63",
"pX c #B98D64",
"aX c #B98D6A",
"sX c #BD9263",
"dX c #BC926B",
"fX c #B69167",
"gX c #BD9571",
"hX c #BF9B77",
"jX c #C18E5F",
"kX c #C19266",
"lX c #C3956B",
"zX c #C69A6C",
"xX c #CA986B",
"cX c #C39973",
"vX c #C79A74",
"bX c #CDA17A",
/* pixels */
"0Xm.z G././.#X#X5X5X5X8X8X8X0XpXsXsXsXsXlXxXzXsXqXqXqXqXkXzXzXkXqXqXqXwX8X8X8X8XwXwX8X8X8X8X8X8X8X6X6X6X,X,X&X&X*X*X/.Y.z.} Y.uX",
"5Xr.E K.W.>X5X6X6X0XpXpXiXpXiX9X8X0X0X5X5X0XpXqX8X0XqXsXlXdXpX9X6X8X8X8X8X8X8X8X8X9X9X0X8X6X5X5X5X6X6X6X,X,X&X&X8X,X(.W.H.=.J.6X",
"!.| Z.yXyXiX7X6XuXiXdXpXiXuX6X,X;XrXdXcXcXdXdXdXdXpXiX0XiXpXpXdXdXgXgXrX`.Y.W./.<X>X>X<X<X<X<X`.T.T.^.^.^./././.~./._.^.L.*.i./.",
"(.{ Q  .E W W } ' ) ' ' ' W W ) W ) ' } =.r.x.Y.b.z.t.k.k.k.t.z.l.i.i.=.} ' ' ' ' ) W W R W W W ) ) ' ' { { } } } { ' W R i =.(.",
"!.=.;.S.H.r.r.r.r.r.r.r.i.i.i.z.J.z.J.Y.W.~.#X>X,X,X5X5X6X5X%X%X,XuXdXdX9X,X,X6X5X5X,X/.b.z.z.b.b.b.J.J.J.x.z.k.k.b.J.H.i.) r.~.",
"!.{ &.Z.K.z.Y.T.Y.W.Y.J.J.J.Y.J.z.z.z.z.z.z.m.Y.%X%X%X5X5X5X5X5XsXdXlXzXzXlXkXkXpXsXpX8X#X~.T.T. X@X/.(./.~.T.T.T.~./.(.~.t.v.N.",
"(.W K.].<X;X%X#X/./.~.W.Y.W.Y.Y.I.Y.W.W.W.T.T.~.T.~.#X%X&X&X&X&X%X>X,X*XT.M.@X&X,X,X&X&X,X,X#X#X X X#X(.`.(.#X#X>X,X,X>X(.k.v.M.",
"%XU K.]._.(.#X/.~.W.Y.Y.Y.J.Y.W.Y.Y.H.J.Y.~./.~.(.>X>X>X>X>X>X#X#X#X#X/.T.T.#X6X9X6X,X,X>X;X#X#X&X:X>X<X<X<X<X,X,X,X<X(.W.r.t.M.",
"(.W ^ >.G.H.x.z.l.l.l.c.i.:.=.=.;.;.;.>.:.Z.Z.>.Z.>.;.-.;.;.:.Z.:.l.l.i.i.H.W.W.H.H.H.H.H.l.l.i.p.R.L.G.).L.L.L.W.J.G.G.:.*.r.Y.",
"(.~ = y i z z z F z j z R E R F D D D D k B D S B S S D D D D S S D z z z z z I E I E E E E E E F z i Q V V i , , &...~ +.R =./.",
"[.;.@ m H ` ` 7.7.7.] ` ` _ ` _ ( ( [ ] ` ] ] ] _ ` ` _ _ _ _ _ _ _ _ _ _ _ ` [ ` ` ] ] ] ] ` ` ] _ +...Q V 8 z ' =.L.G.;.~ p.<X",
"<XZ.@ m J _ ` O._ ` ` ` ` _ ` ] w.w.e.w.w.w.w.7.w.w.@.` _ / / _ y.u.D.D.u.7.( ( e.u.u.u.y.7.7.` ` ! ! V D i W i.w.H._.G.G.&.W.<X",
"eX&.X * 8 r t t k k k x H _ _ _ x x k k k k t t 9 t t t k k k k k k d d d d g l l l K K F F l k k 9 - t z E I.z.Y././.^.i., W.;X",
"4X~ + 5 Q ~ @.*.*.@.] ] ] ] ] ] @.@.] ` @.@.@.@.@.@.@.@.@.@.@.@.w.y.u.p.p.u.e.e.f.D.D.A.A.A.u.y.*.E R ~ +.H.I.b.>XT.Y.H.i & W.<X",
"[.~ & V ;.i.z.I.I.U.U.f.u.e.e.u.w.w.7.] 7.7.O.7.` ] ] ] w.w.e.p.f.f.I.U.U.E.XXXXXXXXE.U.f.f.e.7.Q V ....:.[./.9X;X/.G.i ; 8 Z.].",
"'.{ @ y +.] 3.w.7.7.4.4.4.3.1.<.3.7.7.7.e.7.7.7.e.e.e.e.e.e.4.5.3.3.3.3.1.1.1.[ [ [ [ ( ( / F z E ! ;.)._._.rX;XW.' z u y 3 :.[.",
"<X=.+ Z &.w.f.f.u.e.8.u.I.U.OXXXXXXXXXXXU.U.I.I.I.U.E.I.U.f.p.d.p.p.b.b.p.p.f.p.p.e.y.9.@._ D ~ W r.z.^.<XuX`.`.' F u y M 2 :.1X",
"<X&.X 4 S k F l l h h l v ( ( [ e.4.1.( v v v v [ v ( v h / v h / h h v v h c x x l J f 9 0 ..~ | m.Y.6XiX<XK.@.9 : 8 3 4 1 i.>X",
"rX;.X M ! _ ` ] [ [ ` ( ( [ [ [ ( ( ( ( 2.3.7.e.3.( [ [ 3.e.v 2.( L ( 1.1.1.[ [ O.@.H D i Z.E J.~.z.>XdX>XI.! Q E ! ! G Z w i.>X",
"uX;.O Z +.@.y.y.w.e.e.w.u.p.p.f.d.d.d.d.d.u.u.e.u.F.f.f.=XE.3.U.OXXXXXT.U.U.D.D.u.y.;.D ' W Y././.>X7X>XY.j z _ ` @.+. .Z y z.#X",
"iX&.o B +.7.0.0.u.d.d.y.u.u.d.d.u.e.8.7.8.7.7.7.[ 7.e.7.7.e.e.3.u.u.e.u.u.e.y.u.9.@.R R l.J.,X~.~.,X(.p.x l ' ` ` ` _ Q N 5 p.Q.",
"iX&.+ Z +.w.u.u.f.D.D.u.y.w.7.7.y.y.y.w.7.7.O.` ` K ` @.` ` u.K w.w.7.] 7.] _ _ H F E { /./.T.,X6X;XH.t / ] +.@.@.@._  .Z 5 p.T.",
"tX%.. e Y ! ` ` / / / ! W E E ! S S S D H E D F D i S Q Q D D z u F F J F J D S ' W ' W./.#X,X,X2XZ.i S z D Q u u S V Z M 4 G.~.",
"tX%.  % 3 t t 9 t t t t t t t k z u u u u i S S i i V V q y q q r 8 8 u 0 7 r ~ i *.,X#XT.9X#X6X;.u u G ! ! G B S D G Z 4 1 G.~.",
"dX' + N ! @.q.0.u.u.u.y.y.w.e.u.y.i.y.*.@.@.@.] ` _ _ ' ' _ ! E ^ Q ! G B C R ~ H.>X~.#X,XU.:X] t k D ! _ _ o.` _ _ H V y 3 J.Q.",
"aX@.@ N H ] ` q.7.e.u.8.7.] ( ( ( / / / ( ( ( ( ( / K F F F E ! D G V C N T ..G.'.x.%X#X;X1XJ k g z F x x / / K K K J u 5 - I. X",
"9X=.X N ! 7.7.8.e.u.e.e.w.7.3.1.<.4.4.1.e.g.n.d.d.d.u.7.3.] ] O.y.o.o.V Q Q P.^.x.!.6X>X`.E  .o.` 7.y.w.e.f.U.D.f.u.@.! u 3 T. X",
"<X:.X y H ] 7.7.w.w.4.7.w.t.p.f.e.F.U.g.F.XX=XXX=X=X-XU.u.y.7.@.9.@.H R -.P.L.^.>X5X6X(.z D ..;.y.p.A.u.u.f.D.D.y.y.7.+.G r Q.U.",
"'.:.  2 r g g g s s a < s s a a < > 9 9 > > > > : : : & - 7 7 7 : 9 H =.G.[./.>X;XdXW.p ; ; 8 7 7 7 7 : : : : : 9 7 6 6 % $ K.W.",
"(.=.$ X.Z.R.XX:X:X:X:X:X#X#XXXXXE.R.D.D.D.A.u.u.A.y.#.#.,.,.$. .D E i.J.`.(.T.;XaXp.E @.i.y.*.*.y.y.y.y.y.u.y.y.y.y.S.-.X.N K.Y.",
",X=.+ C ] 3.7.8.4.e.8.e.s.s.f.g.d.d.u.e.e.t.e.4.u.w.w.@.@._ ! Q i W.W./.%X#X#XdX] H k @.@.7.3.w.e.u.u.e.e.e.e.e.8.3.7._ G r i. X",
"9X*.o B @.3.8.d.s.f.f.g.g.g.h.g.f.s.u.t.u.e.e.t.w.w.w.] E D H +.L.J.W.#X@X*XpXr.z H _ O.@.w.3.e.7.u.p.u.a.s.f.d.e.4.7._ G u p.3X",
"uX=.+ C @.w.u.D.D.D.U.E.XXE.U.g.f.e.[ / ] w.y.w.y.w.*.@.z +.S K.J.T.T.#X6X1X*.z ~ _ ! H o.@.@.` ] [ ` ] 7.7.7.@.7.w.@.@.G y ;X9X",
"uX&.  4 u t d l g g d d h l v v L l v d k F J ! z z t , _ W W.W.>X#X,X;X<XE - 0 u k k k J J l k v K / K v l x F l d 0 8 2 = /.lX",
"pXr.@ y F x v ( 1.3.3.2.[ 1.1.1.[ ` ` ] 7.] @.` ! +.F ' ' 1X6X,X>X/.#X>XW W z k k / ] _ ] [ ] [ 2.[ ( [ 1.1.[ ` ( K / H V ; #XxX",
"pXi.+ C &.u.d.D.I.U.D.u.u.s.f.f.D.A.O.7.7.] p.@._ ! +.=.gXiX9X%X%X6XY.t ] *.] ] ( w.u.w.e.p.f.D.U.U.F.f.f.s.p.d.U.U.I.;.Q u #XxX",
"uX:.O Z +.w.7.7.] 3.7.3.] 3.7.7.@.@.y.` _ _ F H +.+.i.hXdX0X*X,X6XR._ F _ *.@.7.y.D.D.d.u.f.D.U.E.U.U.f.d.u.u.u.p.p.y.o.N r Q.xX",
"rX;.O M ! @.O.] ` @.7.7.w.w.7.7.7.#.@._ F ! H _ F H.gXdX,X%X8X8XA.Q H +.] ` O.y.7.y.e.7.3.3.3.3.3.` _ / ( [ ` _ _ / H Q y 3 Q.vX",
"<X&.X n G _ ` O.] ] ] ` _ _ ] ] ` @._ ! Q ! E *.`.cXlX,XQ.5X0X} u u Q ! ! ! _ _ _ ` ` _ / K F F F _ ` _ K x F _ F J D V 5 1 <XbX",
"<X&.X 4 u l l b h l K K K x l l l k k t u +.' rXbXlX,X5.,X9Xw.z u B D _ _ _ x K x K x x l g 9 9 g l x x l h k k k k J u w 2 uXvX",
">X*.+  .p.D.d.a.U.oXU.OXd.d.e.1./ E F z :.R yXcXdX#Xv.#X1Xw.j _ ` ] O.] 3.3.4.4.6.4.w.w.] ` ` ] p.f.I.f.u.e.e.e.u.7.y._ Q r 9XxX",
"/.i.& Q u.d.g.}.}.B.g.}.n.n.g.u.w.] ] *.} '.fX7X%X~.#XQ.( l @.7.7.3.3.4.4.8.e.a.a.s.s.d.e.7.7.7.p.d.f.D.g.s.u.d.d.d.u.@...r #XjX",
"T.z.o V y.u.g.g.g.s.g.d.u.e.e.4.*.&.p.} 6XpX,X%X%X7Xz.F ] A.D.u.u.e.a.d.d.s.s.s.a.8.8.8.7.7.7.w.7.3.4.e.s.e.7.7.7.7._ ! V 3 T.pX",
"Q.i.+ B @.7.8.8.s.e.u.7.w.w.w.w.*.' w.pX8X&X%X,XW.i.W _ y.9.9.y.8.7.8.8.8.e.e.e.8.7.e.y.y.7.@.@.u.e.w.u.u.e.8.7.[ ] _ Q V 3 Q.0X",
"J...X n S x l K v v x k x x g E ' Y.iX#X>XiX#X#Xz.z , k k 9 l f g g g g l x x l l l x z k k t k k k k g d d k k l 9 t 8 2 = `.0X",
"L.^ O Z ..w.u.f.w.u.y.w.@.~ ! i.Y.6X>X,X,X,XR.} x *.@.@.y.u.w.7.p.A.I.R.E.I.p.w.y.y.y.y.y.y.y.y.] 7.7.] [ 3.7.y.7.` y.$.Q y <X,X",
"J.+.  5 Q ` 2.3.3.3.7.] _ W i.W.%X%X~.>X`.H.' k _ ] ] 7.7.7.7.] 3.w.e.p.u.e.[ ( ( [ 7.e.u.e.3.[ 4.7.w.7.8.e.u.u.u.7.7.o.G r >X8X",
"H.>.O N +.] w.y.u.] ] F W *.`.T.T.b.>XY.).! i ! ` @.` ` ] ` ] ] 3.3.3.3.7.e.u.u.e.e.7.4.7.8.8.7.e.w.7.e.d.d.u.u.7.3._ ! V q Q.5X",
"K.;.  M Q +.] *.;.#.! H &.L.x.Y.W.[.W.G.! D ! @.#.#.@.@.@.@.@.@.@.@.O.@.O.@.7.y.y.w.@.@.@.O.O.@.*.@.@.@.7.7.@.@.` _ ! ! C 5 ].7X",
"K.-.  $ q t u z V D ! ] K.i.m.~./.L.`.z , , t k k f 9 d f k l x l l l g g g g g x x x l x x x k g 9 9 9 g k k 9 9 9 0 8 6 1 _.[.",
"J.:.+ N ! ] / E z z ] E.w.b.#XY.I.Y.j / x / ( [ [ [ 2.4.d.U.XX$X$X$XoXoX.X.X.X.X.X X}.g.s.6.1.<.[ <.4.e.e.e.u.u.t.e.] / H z >X!.",
"J.=.+ B #.@.] W I H.p.p.U.Q.I.T.t.c 3.3.f.s.s.n.s.s.s.h.g.B.B.B.V.V.V.V.V.C.C.C.C.B.V.C.C.C.C.C.n.B.}. X}.}.}.}.n.n.s.w.O.x /.k.",
"J.-.o A  .` E R :.=.I.T.R.I.H.p.c 1.1.a.s.s.a.j.B.B.C.C.C.C.C.C.V.V.+X.X+XV.V.B.|.|..X|.V.B.V.B.}.j.j.j.j.j.g.h.a.a.u.3.P f Q.M.",
"J.&.O A  .Q ' =.i.J.Q.I.Q.W.&.E e.d.U.OXU. XoX}.|.}.B.B.B.V.V.V.}.|..XoX.X}.B.j.}..XoX.X.X.X}.}.}.}.g.g.g.g.F.F.g.s.w.7.o.k W.k.",
"W.Q O % Q u :.G._.K.W.R.2X_ t ! _ _ O._ O.` ` 7.8.e.8.8.u.f.f.f.e.e.e.e.e.5.3.3.4.7.e.e.u.u.u.e.e.e.e.3.( ( [ 7.u.7.@.+.$.S W.c.",
"L...  M Q ;.H.W.L.W.W._.! t k k J J J K F K K K K K K v v K K K K / ( / / / K K v x l x K / K x v K K K l l l l k j k u m 6 K.c.",
"Q.' 2 Z =.J.I.Q.W._.Q.j E F ] [ 3.w.w.w.e.e.e.e.u.d.d.d.u.e.8.8.8.e.a.e.s.u.e.8.8.3.2.3.8.7.8.7.e.e.e.7.4.3.[ / ] ] ' _ G u W.l.",
"`.' y ..H.Y.T././.H.x F x _ ] [ w.w.4.4.5.e.e.e.6.3.1.1.3.4.3.4.8.8.a.a.e.e.e.8.8.4.4.4.8.4.3.4.1.4.e.e.e.t.u.w.3.3.] ] H u Y.z.",
"^.+...>.W.T.(.'.G.R J _ _ *.] w.3.7.7.e.u.u.e.8.2.( L ( 2.7.7.8.3.3.4.8.8.4.8.8.8.3.4.8.8.8.3.4.e.u.d.f.f.U.U.D.d.d.e.w.o.J I.t.",
"_.&...>.W.'.(.l.Y V D @.! _ ' ' / / / / [ ] ] ] [ ] 7.7.7.q.7.7.3.3.1.3.3.3.3.7.w.w.e.p.p.p.u.e.] 3.7.7.5.5.w.7.w.5.' _ J 0 p.k.",
"^.&.%.{.L.W.:.R Y Q !  .! Q ^ R W W W ) ' ' ] } *.w.r.p.p.i.i.i.i.=.*.*.*.} { &.{ ' ~ ' ' ' ' ~ R W W E W W _ ' ' ' ' ~ Q B i.x.",
"/.{ Y X.i i R R %...;...;.;.+.=.:.:.l.l.H.J.Y.Y.J.z.z.z.J.J.J.H.i.i.:.i.:.:.:.:.G.l.:.:.:.:.:.:.=.=.=.=.*.*.=.=.' { =.;.$.Q :.x.",
"@X} ^ -.+._ ' ' ^ &.E :.&.&.&.:.:.=.=.=.r.z.J.Y.Y.x.z.z.z.z.i.r.i.z.J.Y.J.J.J.J.J.H.l.i.=.} *.=.i.:.:.=.=.=.*.*.=.=.=.*.$.Q =.m.",
"@Xt.:.P.K.Z.R.W.L.G.W.H.J.G.H.H.H.K.A.H.H.W.Q.Q.>X>X,X6X6X6X7XuXaXcXvXvXcXcXcXcXdXaXiXrX<XQ.W.W./.^._._._./.W.W.W.^.;X2X].S.i.m."
};
