/* XPM */
static char *_6b569df6dec41d3e06a618922f4b40993GmswmWP3MOGXbo[] = {
/* columns rows colors chars-per-pixel */
"64 64 96 2 ",
"   c #39372F",
".  c #3B3630",
"X  c #3E3B34",
"o  c #423D36",
"O  c #433F38",
"+  c #464037",
"@  c #46423A",
"#  c #4A453D",
"$  c #4C483F",
"%  c #514A3F",
"&  c #4C4740",
"*  c #4E4A41",
"=  c #524D44",
"-  c #534F48",
";  c #555146",
":  c #585247",
">  c #565249",
",  c #5A554B",
"<  c #58564D",
"1  c #5C574F",
"2  c #5B594F",
"3  c #5D594E",
"4  c #5C584F",
"5  c #5B5950",
"6  c #5E5A51",
"7  c #5C5C52",
"8  c #5F5D53",
"9  c #5F5D54",
"0  c #615B4F",
"q  c #605C52",
"w  c #605D53",
"e  c #635F55",
"r  c #625F56",
"t  c #636155",
"y  c #626056",
"u  c #656156",
"i  c #696356",
"p  c #626158",
"a  c #646158",
"s  c #666359",
"d  c #67655A",
"f  c #67665D",
"g  c #69675B",
"h  c #6A665A",
"j  c #6A675D",
"k  c #69685C",
"l  c #6A685C",
"z  c #6D695D",
"x  c #6C695F",
"c  c #6D6A5E",
"v  c #6E6C5F",
"b  c #716B5E",
"n  c #6B6A61",
"m  c #6E6B62",
"M  c #6E6D64",
"N  c #706D61",
"B  c #736E61",
"V  c #716F62",
"C  c #736F67",
"Z  c #737063",
"A  c #737066",
"S  c #767164",
"D  c #757366",
"F  c #767366",
"G  c #777467",
"H  c #7A7465",
"J  c #7E7867",
"K  c #737068",
"L  c #777568",
"P  c #7B7669",
"I  c #7E796A",
"U  c #7F7D71",
"Y  c #807967",
"T  c #827C6D",
"R  c #837E71",
"E  c #86806F",
"W  c #88806F",
"Q  c #868172",
"!  c #8A8473",
"~  c #8E8876",
"^  c #868578",
"/  c #8C8678",
"(  c #8E897A",
")  c #908775",
"_  c #918976",
"`  c #938C7B",
"'  c #998E7B",
"]  c #96917E",
"[  c #99917D",
"{  c #979181",
"}  c #9B9582",
"|  c #9F9986",
" . c #9D9989",
".. c #A19A86",
"X. c #A39D8B",
"o. c #A7A08D",
/* pixels */
"F F F F V k y y m A C K A C M n f f f f k M M M A M j j k M k k k d y d p 8 < 5 a f f d k n m m c c V Z V m V F F F Z F F A A A ",
"k k g v c a < > w r w r r 9 r p 9 6 6 8 r y u u a r 2 2 5 8 y d y 9 8 9 8 > = > 9 p y a d j g g k c c M c c M V c c c c c k k j ",
"> = * > 2 5 > * = = * * * * - > * * * * * * * = > ; = * * = ; ; * * * * * > * * = = = : : : = * - : > > > , < , : < 1 6 r y r r ",
"# @ + # = > > * # # # # $ * * * @ @ # # & # # $ * @ @ @ * - * @ + + + @ * > : > ; * # * * * = = = = * * * # # * = = = = : < : : ",
"@ O O @ * 4 r 6 * O X X X o o o @ # = - ; ; = # @ o o o O @ + X X X X O * < 8 6 > @ X X X O * : > ; = # O O O @ @ $ = = = # # & ",
"c V F F F I ^ Q g 4 < 2 < < < 4 u d g k F R I V c g g a r 6 6 6 r r r r d M A m 8 6 r u u u j V L A a 4 4 r r r u V P I V 4 6 r ",
"` | o.X.| { ` ( Q / ] { { ] ` ( ^ P M C R { } { ` ` ( ( Q F P R ^ Q U U U U I A a V ^ / Q Q Q Q ^ U F m A U R R U ^ ( ( ^ C P T ",
"_ _ ( ( / ^ R I T / ] { { ] ` ~ Q L c m P _ ` / Q T I T P c V I I P A A A A V c y g F L P P L P I F V c V F L P I R Q ^ I c V P ",
"Q T T I P I I T T Q _ ` ` ` ` _ ~ T V c F / ` ( Q I P P F g c F I P V M v c c j y k P I I I I I I F b F P P P I / ( ( ( I a V I ",
"V V V V V V V V F T _ _ ` [ [ ` Q P c u a F F F V V V V c u u g c c g g g g g u w g F P I T T T I V g b V V V F I T R I V w g V ",
"g g u w 8 y d g a j V c c V b b b c a u u a g a r u g c c c c c c g a r u g g g g g k c c a a c F P P P F F b g r a c c j j c c ",
"I P F c c I Q T F F G I P c g V T Q Q Q Q T T I b V I Q / ! ! / / T P M V R Q Q R R R Q I g g F ( { { { } | ` T k M P P P I P P ",
"F F F F I ~ ` ~ T I R ` ` T T Q / / Q Q Q Q Q T b V I T Q E Q ! / Q I F F Q Q R I I I T I b b F Q ~ ~ ` | X. .( F F I P P T I F ",
"V b c b P Q ~ ~ Q I F R R P I T Q T J P T T T P g b P I P P I T T T I F P R T P P P P I P V V F I T T Q _ } } ( F V P P I Q T T ",
"P b u w u c b V F c a g g i c F T T T T T P F V g g V F J I P F V b b c Z T I P F F V F F b b b b F P P P P I P j c F P I T R R ",
"g a r w w w 6 6 < 4 w u i g g c F P F V c a a a r w r u u u u y w w 8 w y y y y r w w u r w w w 8 w w u u r r u d j j V V a u r ",
"T T T Q Q Q T I c c I Q ~ / Q R / ^ F w 6 F P P P P F J F i g V P P P P P P P F a d V F F P P P P V g u c P P I Q ^ Q ( ^ V r 4 ",
"| } } } } { ` Q F I ~ ] ] ` / / { { ( F P ] _ Q / ~ _ ` _ Q Q Q ~ ~ / / / ~ ~ T c c I T T I I R Q I F V F R R T R Q Q ( / T T Q ",
"} | | } { ` / I F T ` ` ( ! I I ^ / ! P T ` / T / ` [ } [ ! T P P T Q ~ ~ ~ / T j c P P P F F F P P F V V P I I R Q Q Q P b T ( ",
"{ } } } ` ! I F V P / / T P P P P F V b J ( ~ Q / ` { { ~ P F F F T Q _ ` ` / P g c I T I P F V F C V c V P P P R ^ R I V c P / ",
"I P P P F g u w 6 y g d u u i i u y r r k P F b b F P C g < 4 u g g b P I F c a r u g c g g r w w r u u u u r u g c j a r w a b ",
"I F c u u V F P I P F F b i r i g j g d g k c k u u c V V V b V b c g u g c c c C F F F V g u a c C F F F V V c u a c g c F P I ",
"} ` Q V V Q ( ` ` ` ` ` Q V V F T I F F F F P P c V T / ` ` ` _ / Q T V V T R R Q / { | _ P V F Q / ^ ^ ^ / / T c b P P T ~ ] } ",
"} ` R c c P T T T I I T I V V F I P M c g g c c g c P P T Q R T T T T V b P P P F I Q ` ~ P V m P P F V F P T P g c F F F T _ } ",
"R I C c c P I I I P F P F b c V I I V c g g c c g b P I I P P P T T T b c F J J J I T _ _ P V V P I P I I J I P c F T T P P R ~ ",
"a a u u u c c c c g g c g g u g F F c c c g i u r u k v b c c c b b c g g c V b c V F T I c a y j c V F V b b c u g b V b a g j ",
"g u w u u u u a i u u y w w r u g k c V V g r 0 u g g u u u u u u 0 4 g c g a r r u g a r 6 r d a u u u u u w w r w : : < 8 r r ",
"R F c P T T R Q Q Q T I F b F P P P T Q Q T b i J T Q T T T T T T b r b P I P F P P F c g m T ( Q R T I T T P V P T P P I I T T ",
"T V u F T T T T T T E T J b F F F P T E W T b g F T Q ! W T T W _ T i b P I I I I I P b g c I Q R T T R ~ ` Q P I ~ } | ] ~ ! ! ",
"E F i b P P J J P P J T J c c b b F P T Y F g i F T W Q T T T ! ! J g J T T T T T T T V g g F T I P P I T ~ T F T ~ } } ] ~ ~ ~ ",
"T F i V P P I T P P P P b u i g g c c b b b i r b F J T I Y Q ~ T b u b P T J F P I I b g g V P P J J P F F V V I / ` { { ` ` ` ",
"b g u u u u a a i u u u u u r r w w w r r r r r w w r u u u c V b b b g g g g g c i u u u u r r r r r r r u i g c c V P T / Q T ",
"c V V b c k g c c g u g b F F F F F J I F g b F F F A F F F b F I ~ ` ~ T T T Q _ T g b F I I P P F F F c g F T T I I T / ] ~ T ",
"T I P P P I I P P b g b F I T I I T / _ Q F P Q Q Q Q Q ! ~ ~ E T Q ~ Q Q Q Q Q ~ T b V I Q ! ! / / ! Q I b P Q Q Q Q Q ( } [ ` ",
"P F V V F T T P V g a V F F F F J T ! _ Q P T / R I P L I T Q T P P I I I I I T T V a b F P P I T T T P F c V P P P P P T _ ` ` ",
"g b V c c F I T F c a V P P F F T ~ ` ` Q V T ~ Q I P P I T I F g b I T I P I T T V w i V I T Q ~ ! Q I V c F I P F F F P E Q T ",
"w u g u w w u i r w w g c g i u g V P F c w g b c g g b F F F g 6 6 u u u u g c c u 4 4 w a c F F F F b c a j c a r r u g c c g ",
"F F F F V c c g r u g c c g i i g g i w u g g u u g g g u w i c c b V V F I J V u g F V g d k c c g u u g c k a u u u a u u g V ",
"~ ~ ~ ~ ! R R T V F T Q Q T T T T T P c c P I P T Q / Q P i u c F T Q _ [ } [ Q u c Q / ~ ~ ~ ~ ~ T F k c I T P F F F L V c F I ",
"I I I T I J T I c V T / ~ ! Q T I P b g c F P P T T I I F g i g c b F Q ` [ } ~ c V Q T T T T T T P b u a b V V b V V V c g F T ",
"T T I J J J T T g V ! ` ` _ _ _ ! I b b V T R Q R P V F b g b F I F c P ! ` ` Q V V T I P P P P P F c u u k c c c c c c c g P R ",
"P F b b b b F b u g J _ ` ! Q Q E F g g V T T I F b g g u w g V P b r i b P F b r u V V V V V V b c i w 8 u u u i i i g u r g V ",
"0 w r w w r i b F F F T T P P V i r u g b V b g i r r i i g b b b b c g i r i g a a a a a a y w w u g g d i d g g u w u u u u r ",
"F J T F g i H _ } } [ ` _ _ ! J i c J J P I P F F b g F T ! ! ! E Q ! T F g F I I I I I P P V g c F Q Q T T T T T F g b P T I P ",
"` ` ` ! F i Y ' ........} [ ! H i c F F F F H H H b i b Y T T T T T T T S g b F F J T T T H b b V P Q Q W T T T T F i b V J J J ",
"J T ~ W F i J ' ........} [ W H i i b b b F J Y P F b b H Y Y J J I I I F i b b b F J J F b b b J T ~ _ ~ E T T T F i g b b b b ",
"b J T T F u b T Q Q Q T T P F c r u i i b F F b b i i b H Y J F F F F V g y i i g c b g g g i i V T ~ ! T J H F F c r i i i g b ",
"u i g g i w r u r 4 1 w i i y w 0 w y r w w w w 0 0 0 r u i u y r w 6 w y i y r r 0 0 w r r w w u g b g i u u u r r r r w w w r ",
"b b g g c F V c g r r J Q Q T F V F P S b u c F J J J S P J b i u g b F T T T J F b i b F P P P P F V b b i b J P P P P P P F V ",
"J F F b V F F F F V V Q _ ~ T J F F P F b i S T E E E E Q ! T b F T ! ) _ _ ) ! ! J b P T Q Q Q Q W T T F c T ~ / Q Q R R Q Q Q ",
"g b b c g c c c c g b T Q T J V b b V V c g V I J F F F F P V b J ! [ ' ' ` ` ` _ J g P T I I T T T J J b g F T I J F P P T Q ! ",
"c b b c i i i g g i r b J T F b g b F F V c J Q T T P F P J V c c T ' [ [ ` ' ' ! V w P Q T I T Q Q T J b i b I J J P I T Q E T ",
"u d d w , 4 4 w w w 4 0 w w 4 4 4 w r w 4 4 g F P F V F b g r 4 , 4 u u y w r u w , : 4 y u u u g c c g r 4 w i u i g b V V c c ",
"u u w 4 < , 4 w w u a w < , < 4 w u u w w w u i i i i i u r 4 , , > > = : < 1 1 < < , ; = : , 2 2 4 w w w 4 0 0 w w w u i i u u ",
"c c g u w 4 w w w g V a w w r g b b b c c c g u y y u w 0 0 w r y u u w r i i u 4 4 4 < > , 8 u u y y y u u u i u i i i u r i g ",
"a r 6 , ; : , , ; , 4 : - ; , w w w 4 , : , - * * * = * * $ = ; : : : : : , 0 0 = * * * * * * * = = = = = = - ; : , < , : , 6 w ",
": : = $ * - 1 0 : - = = * = = = = * * * * * * $ $ $ # # @ # $ & * * $ # # * : < * * * $ # @ @ # $ $ @ # # @ @ # # * * * * = ; : ",
"@ @ @ O @ * 4 u r , * $ $ $ @ O O o o O @ # $ * * $ # # @ o o o X .   . X O * = # + o o X     X o o o o o X X o o + + @ @ # @ @ ",
"$ # @ # * ; r c c w : : - = $ @ @ @ @ @ # = - : ; ; ; < : # @ o o X X o O # = : $ @ O + @ # @ @ @ O O + @ @ @ @ # $ * = = = $ @ ",
", : ; ; , w u i u r r r w 6 < > > > : : > < 4 w w 6 w g c u r r w w r u u g g g a i i g c V V c g i i u u u u u u c F F g > ; : ",
"; = * $ = : , , ; ; ; ; ; ; = = = * * = = = = = - ; ; 0 w 4 0 0 1 1 4 4 4 4 0 0 w w w r i g i r 0 0 0 4 4 , , , : w c V u # # * ",
"# # # # $ - : : - = = = = = * # @ @ @ # # $ $ $ * = - , , , : ; $ $ * $ $ * * * = ; ; - - - = = = = = * $ $ * $ $ * ; u w # @ @ ",
"+ @ # @ @ $ = ; : ; = = = = # @ O @ @ + + # $ = = ; : : 1 w 1 ; = $ $ $ $ $ $ $ $ $ * $ $ $ $ $ # $ $ # # # # $ # $ = < < * # @ ",
"+ @ # # @ @ # = ; , , , : = # O o O O o o # = ; : : : : 1 w , % # @ @ @ + + + + O o o o o o o o o o o o o o o @ # $ $ = = = * # "
};
